<svg width="128" height="59" viewBox="0 0 128 59" fill="none" xmlns="http://www.w3.org/2000/svg">
<path d="M2.78125 10.0312C2.78125 9.42708 2.88542 8.86458 3.09375 8.34375C3.32292 7.80208 3.625 7.34375 4 6.96875C4.375 6.57292 4.8125 6.27083 5.3125 6.0625C5.83333 5.83333 6.38542 5.71875 6.96875 5.71875C7.55208 5.71875 8.09375 5.83333 8.59375 6.0625C9.11458 6.27083 9.55208 6.57292 9.90625 6.96875C10.2812 7.34375 10.5729 7.80208 10.7812 8.34375C10.9896 8.86458 11.0938 9.42708 11.0938 10.0312V19.625C11.4271 19.2292 11.8542 18.8646 12.375 18.5312C12.9167 18.1979 13.5 17.9062 14.125 17.6562C14.7708 17.4062 15.4271 17.2083 16.0938 17.0625C16.7812 16.9167 17.4375 16.8438 18.0625 16.8438C20.1458 16.8438 22.1146 17.25 23.9688 18.0625C25.8229 18.8542 27.4375 19.9479 28.8125 21.3438C30.1875 22.7188 31.2708 24.3333 32.0625 26.1875C32.875 28.0417 33.2812 30.0208 33.2812 32.125C33.2812 34.2292 32.875 36.2083 32.0625 38.0625C31.2708 39.8958 30.1875 41.5 28.8125 42.875C27.4375 44.25 25.8229 45.3438 23.9688 46.1562C22.1146 46.9479 20.1458 47.3438 18.0625 47.3438C15.9583 47.3438 13.9792 46.9479 12.125 46.1562C10.2917 45.3438 8.67708 44.25 7.28125 42.875C5.88542 41.5 4.78125 39.8958 3.96875 38.0625C3.17708 36.2083 2.78125 34.2292 2.78125 32.125V10.0312ZM11.125 32.125C11.125 33.0833 11.3021 33.9792 11.6562 34.8125C12.0312 35.6458 12.5312 36.375 13.1562 37C13.8021 37.625 14.5417 38.1146 15.375 38.4688C16.2292 38.8229 17.125 39 18.0625 39C19.0208 39 19.9167 38.8229 20.75 38.4688C21.5833 38.1146 22.3125 37.625 22.9375 37C23.5625 36.375 24.0521 35.6458 24.4062 34.8125C24.7812 33.9792 24.9688 33.0833 24.9688 32.125C24.9688 31.1667 24.7812 30.2708 24.4062 29.4375C24.0521 28.6042 23.5625 27.875 22.9375 27.25C22.3125 26.625 21.5833 26.1354 20.75 25.7812C19.9167 25.4271 19.0208 25.25 18.0625 25.25C17.125 25.25 16.2292 25.4271 15.375 25.7812C14.5417 26.1354 13.8021 26.625 13.1562 27.25C12.5312 27.875 12.0312 28.6042 11.6562 29.4375C11.3021 30.2708 11.125 31.1667 11.125 32.125ZM37.4688 20.9688C37.4688 20.4062 37.5729 19.875 37.7812 19.375C38.0104 18.875 38.3125 18.4375 38.6875 18.0625C39.0625 17.6875 39.5 17.3958 40 17.1875C40.5 16.9583 41.0312 16.8438 41.5938 16.8438C42.1562 16.8438 42.6875 16.9583 43.1875 17.1875C43.7083 17.3958 44.1562 17.6875 44.5312 18.0625C44.9271 18.4375 45.2292 18.875 45.4375 19.375C45.6667 19.875 45.7812 20.4062 45.7812 20.9688V32.625C45.7812 33.5417 45.9479 34.3958 46.2812 35.1875C46.6146 35.9583 47.0729 36.6354 47.6562 37.2188C48.2604 37.7812 48.9583 38.2292 49.75 38.5625C50.5625 38.875 51.4271 39.0312 52.3438 39.0312C53.2604 39.0312 54.0833 38.8646 54.8125 38.5312C55.5417 38.1979 56.1562 37.7396 56.6562 37.1562C57.1562 36.5729 57.5417 35.8854 57.8125 35.0938C58.0833 34.3021 58.2188 33.4479 58.2188 32.5312V20.9688C58.2188 20.4062 58.3333 19.875 58.5625 19.375C58.7917 18.875 59.0938 18.4375 59.4688 18.0625C59.8646 17.6875 60.3229 17.3958 60.8438 17.1875C61.3646 16.9583 61.9062 16.8438 62.4688 16.8438C63.0312 16.8438 63.5625 16.9583 64.0625 17.1875C64.5625 17.3958 64.9896 17.6875 65.3438 18.0625C65.7188 18.4375 66.0104 18.875 66.2188 19.375C66.4271 19.875 66.5312 20.4062 66.5312 20.9688V32.5312C66.5312 34.5729 66.1771 36.4896 65.4688 38.2812C64.7604 40.0729 63.7708 41.6458 62.5 43C61.2292 44.3333 59.7292 45.3958 58 46.1875C56.2708 46.9583 54.3854 47.3438 52.3438 47.3438C50.3021 47.3438 48.375 46.9583 46.5625 46.1875C44.75 45.3958 43.1667 44.3333 41.8125 43C40.4792 41.6458 39.4167 40.0729 38.625 38.2812C37.8542 36.4896 37.4688 34.5729 37.4688 32.5312V20.9688ZM95.9062 16.8438C96.2812 16.8438 96.7083 16.9167 97.1875 17.0625C97.6667 17.2083 98.1146 17.4375 98.5312 17.75C98.9688 18.0625 99.3229 18.4792 99.5938 19C99.8854 19.5208 100.031 20.1562 100.031 20.9062C100.031 21.5729 99.8958 22.1875 99.625 22.75C99.3542 23.3125 98.9792 23.7812 98.5 24.1562L83.9062 38.9062H96.5625C97.1458 38.9062 97.6875 39.0104 98.1875 39.2188C98.7083 39.4062 99.1562 39.6875 99.5312 40.0625C99.9062 40.4167 100.198 40.8333 100.406 41.3125C100.635 41.7917 100.75 42.3125 100.75 42.875C100.75 43.4375 100.635 43.9688 100.406 44.4688C100.198 44.9688 99.9062 45.4062 99.5312 45.7812C99.1562 46.1562 98.7083 46.4583 98.1875 46.6875C97.6875 46.8958 97.1458 47 96.5625 47H74.8438C74.2812 47 73.75 46.8958 73.25 46.6875C72.75 46.4583 72.3125 46.1562 71.9375 45.7812C71.5625 45.4062 71.2604 44.9688 71.0312 44.4688C70.8229 43.9688 70.7188 43.4375 70.7188 42.875C70.6979 42.3542 70.7917 41.8542 71 41.375C71.2083 40.8958 71.5208 40.4479 71.9375 40.0312L86.7188 25.0625H75.0625C74.5 25.0625 73.9688 24.9583 73.4688 24.75C72.9688 24.5208 72.5312 24.2188 72.1562 23.8438C71.8021 23.4688 71.5104 23.0312 71.2812 22.5312C71.0729 22.0312 70.9688 21.4896 70.9688 20.9062C70.9688 20.3438 71.0729 19.8229 71.2812 19.3438C71.5104 18.8438 71.8021 18.4062 72.1562 18.0312C72.5312 17.6562 72.9688 17.3646 73.4688 17.1562C73.9688 16.9479 74.5 16.8438 75.0625 16.8438H95.9062Z" fill="url(#paint0_linear_10_37)"/>
<path d="M122.945 9.38281C123.227 9.38281 123.547 9.4375 123.906 9.54688C124.266 9.65625 124.602 9.82812 124.914 10.0625C125.242 10.2969 125.508 10.6094 125.711 11C125.93 11.3906 126.039 11.8672 126.039 12.4297C126.039 12.9297 125.938 13.3906 125.734 13.8125C125.531 14.2344 125.25 14.5859 124.891 14.8672L113.945 25.9297H123.438C123.875 25.9297 124.281 26.0078 124.656 26.1641C125.047 26.3047 125.383 26.5156 125.664 26.7969C125.945 27.0625 126.164 27.375 126.32 27.7344C126.492 28.0938 126.578 28.4844 126.578 28.9062C126.578 29.3281 126.492 29.7266 126.32 30.1016C126.164 30.4766 125.945 30.8047 125.664 31.0859C125.383 31.3672 125.047 31.5938 124.656 31.7656C124.281 31.9219 123.875 32 123.438 32H107.148C106.727 32 106.328 31.9219 105.953 31.7656C105.578 31.5938 105.25 31.3672 104.969 31.0859C104.688 30.8047 104.461 30.4766 104.289 30.1016C104.133 29.7266 104.055 29.3281 104.055 28.9062C104.039 28.5156 104.109 28.1406 104.266 27.7812C104.422 27.4219 104.656 27.0859 104.969 26.7734L116.055 15.5469H107.312C106.891 15.5469 106.492 15.4688 106.117 15.3125C105.742 15.1406 105.414 14.9141 105.133 14.6328C104.867 14.3516 104.648 14.0234 104.477 13.6484C104.32 13.2734 104.242 12.8672 104.242 12.4297C104.242 12.0078 104.32 11.6172 104.477 11.2578C104.648 10.8828 104.867 10.5547 105.133 10.2734C105.414 9.99219 105.742 9.77344 106.117 9.61719C106.492 9.46094 106.891 9.38281 107.312 9.38281H122.945Z" fill="url(#paint1_linear_10_37)"/>
<defs>
<linearGradient id="paint0_linear_10_37" x1="50.6922" y1="7.77016" x2="50.6922" y2="53.4556" gradientUnits="userSpaceOnUse">
<stop stop-color="#351065"/>
<stop offset="1" stop-color="#6100FF" stop-opacity="0.75"/>
</linearGradient>
<linearGradient id="paint1_linear_10_37" x1="115.304" y1="2.81048" x2="115.304" y2="36.8669" gradientUnits="userSpaceOnUse">
<stop stop-color="#351065"/>
<stop offset="1" stop-color="#6100FF" stop-opacity="0.75"/>
</linearGradient>
</defs>
</svg>
