<svg width="79" height="29" viewBox="0 0 79 29" fill="none" xmlns="http://www.w3.org/2000/svg">
<path d="M0.738281 4.89453C0.738281 4.51693 0.803385 4.16536 0.933594 3.83984C1.07682 3.5013 1.26562 3.21484 1.5 2.98047C1.73438 2.73307 2.00781 2.54427 2.32031 2.41406C2.64583 2.27083 2.99089 2.19922 3.35547 2.19922C3.72005 2.19922 4.05859 2.27083 4.37109 2.41406C4.69661 2.54427 4.97005 2.73307 5.19141 2.98047C5.42578 3.21484 5.60807 3.5013 5.73828 3.83984C5.86849 4.16536 5.93359 4.51693 5.93359 4.89453V10.8906C6.14193 10.6432 6.40885 10.4154 6.73438 10.207C7.07292 9.9987 7.4375 9.81641 7.82812 9.66016C8.23177 9.50391 8.64193 9.38021 9.05859 9.28906C9.48828 9.19792 9.89844 9.15234 10.2891 9.15234C11.5911 9.15234 12.8216 9.40625 13.9805 9.91406C15.1393 10.4089 16.1484 11.0924 17.0078 11.9648C17.8672 12.8242 18.5443 13.8333 19.0391 14.9922C19.5469 16.151 19.8008 17.388 19.8008 18.7031C19.8008 20.0182 19.5469 21.2552 19.0391 22.4141C18.5443 23.5599 17.8672 24.5625 17.0078 25.4219C16.1484 26.2812 15.1393 26.9648 13.9805 27.4727C12.8216 27.9674 11.5911 28.2148 10.2891 28.2148C8.97396 28.2148 7.73698 27.9674 6.57812 27.4727C5.43229 26.9648 4.42318 26.2812 3.55078 25.4219C2.67839 24.5625 1.98828 23.5599 1.48047 22.4141C0.985677 21.2552 0.738281 20.0182 0.738281 18.7031V4.89453ZM5.95312 18.7031C5.95312 19.3021 6.0638 19.862 6.28516 20.3828C6.51953 20.9036 6.83203 21.3594 7.22266 21.75C7.6263 22.1406 8.08854 22.4466 8.60938 22.668C9.14323 22.8893 9.70312 23 10.2891 23C10.888 23 11.4479 22.8893 11.9688 22.668C12.4896 22.4466 12.9453 22.1406 13.3359 21.75C13.7266 21.3594 14.0326 20.9036 14.2539 20.3828C14.4883 19.862 14.6055 19.3021 14.6055 18.7031C14.6055 18.1042 14.4883 17.5443 14.2539 17.0234C14.0326 16.5026 13.7266 16.0469 13.3359 15.6562C12.9453 15.2656 12.4896 14.9596 11.9688 14.7383C11.4479 14.5169 10.888 14.4062 10.2891 14.4062C9.70312 14.4062 9.14323 14.5169 8.60938 14.7383C8.08854 14.9596 7.6263 15.2656 7.22266 15.6562C6.83203 16.0469 6.51953 16.5026 6.28516 17.0234C6.0638 17.5443 5.95312 18.1042 5.95312 18.7031Z" fill="url(#paint0_linear_13_4)"/>
<path d="M22.418 11.7305C22.418 11.3789 22.4831 11.0469 22.6133 10.7344C22.7565 10.4219 22.9453 10.1484 23.1797 9.91406C23.4141 9.67969 23.6875 9.4974 24 9.36719C24.3125 9.22396 24.6445 9.15234 24.9961 9.15234C25.3477 9.15234 25.6797 9.22396 25.9922 9.36719C26.3177 9.4974 26.5977 9.67969 26.832 9.91406C27.0794 10.1484 27.2682 10.4219 27.3984 10.7344C27.5417 11.0469 27.6133 11.3789 27.6133 11.7305V19.0156C27.6133 19.5885 27.7174 20.1224 27.9258 20.6172C28.1341 21.099 28.4206 21.5221 28.7852 21.8867C29.1628 22.2383 29.599 22.5182 30.0938 22.7266C30.6016 22.9219 31.1419 23.0195 31.7148 23.0195C32.2878 23.0195 32.8021 22.9154 33.2578 22.707C33.7135 22.4987 34.0977 22.2122 34.4102 21.8477C34.7227 21.4831 34.9635 21.0534 35.1328 20.5586C35.3021 20.0638 35.3867 19.5299 35.3867 18.957V11.7305C35.3867 11.3789 35.4583 11.0469 35.6016 10.7344C35.7448 10.4219 35.9336 10.1484 36.168 9.91406C36.4154 9.67969 36.7018 9.4974 37.0273 9.36719C37.3529 9.22396 37.6914 9.15234 38.043 9.15234C38.3945 9.15234 38.7266 9.22396 39.0391 9.36719C39.3516 9.4974 39.6185 9.67969 39.8398 9.91406C40.0742 10.1484 40.2565 10.4219 40.3867 10.7344C40.5169 11.0469 40.582 11.3789 40.582 11.7305V18.957C40.582 20.2331 40.3607 21.431 39.918 22.5508C39.4753 23.6706 38.8568 24.6536 38.0625 25.5C37.2682 26.3333 36.3307 26.9974 35.25 27.4922C34.1693 27.974 32.9909 28.2148 31.7148 28.2148C30.4388 28.2148 29.2344 27.974 28.1016 27.4922C26.9688 26.9974 25.9792 26.3333 25.1328 25.5C24.2995 24.6536 23.6354 23.6706 23.1406 22.5508C22.6589 21.431 22.418 20.2331 22.418 18.957V11.7305Z" fill="url(#paint1_linear_13_4)"/>
<path d="M58.9414 9.15234C59.1758 9.15234 59.4427 9.19792 59.7422 9.28906C60.0417 9.38021 60.3216 9.52344 60.582 9.71875C60.8555 9.91406 61.0768 10.1745 61.2461 10.5C61.4284 10.8255 61.5195 11.2227 61.5195 11.6914C61.5195 12.1081 61.4349 12.4922 61.2656 12.8438C61.0964 13.1953 60.862 13.4883 60.5625 13.7227L51.4414 22.9414H59.3516C59.7161 22.9414 60.0547 23.0065 60.3672 23.1367C60.6927 23.2539 60.9727 23.4297 61.207 23.6641C61.4414 23.8854 61.6237 24.1458 61.7539 24.4453C61.8971 24.7448 61.9688 25.0703 61.9688 25.4219C61.9688 25.7734 61.8971 26.1055 61.7539 26.418C61.6237 26.7305 61.4414 27.0039 61.207 27.2383C60.9727 27.4727 60.6927 27.6615 60.3672 27.8047C60.0547 27.9349 59.7161 28 59.3516 28H45.7773C45.4258 28 45.0938 27.9349 44.7812 27.8047C44.4688 27.6615 44.1953 27.4727 43.9609 27.2383C43.7266 27.0039 43.5378 26.7305 43.3945 26.418C43.2643 26.1055 43.1992 25.7734 43.1992 25.4219C43.1862 25.0964 43.2448 24.7839 43.375 24.4844C43.5052 24.1849 43.7005 23.9049 43.9609 23.6445L53.1992 14.2891H45.9141C45.5625 14.2891 45.2305 14.224 44.918 14.0938C44.6055 13.9505 44.332 13.7617 44.0977 13.5273C43.8763 13.293 43.694 13.0195 43.5508 12.707C43.4206 12.3945 43.3555 12.056 43.3555 11.6914C43.3555 11.3398 43.4206 11.0143 43.5508 10.7148C43.694 10.4023 43.8763 10.1289 44.0977 9.89453C44.332 9.66016 44.6055 9.47786 44.918 9.34766C45.2305 9.21745 45.5625 9.15234 45.9141 9.15234H58.9414Z" fill="url(#paint2_linear_13_4)"/>
<path d="M76.2969 0.921875C76.4844 0.921875 76.6979 0.958333 76.9375 1.03125C77.1771 1.10417 77.401 1.21875 77.6094 1.375C77.8281 1.53125 78.0052 1.73958 78.1406 2C78.2865 2.26042 78.3594 2.57812 78.3594 2.95312C78.3594 3.28646 78.2917 3.59375 78.1562 3.875C78.0208 4.15625 77.8333 4.39062 77.5938 4.57812L70.2969 11.9531H76.625C76.9167 11.9531 77.1875 12.0052 77.4375 12.1094C77.6979 12.2031 77.9219 12.3438 78.1094 12.5312C78.2969 12.7083 78.4427 12.9167 78.5469 13.1562C78.6615 13.3958 78.7188 13.6562 78.7188 13.9375C78.7188 14.2188 78.6615 14.4844 78.5469 14.7344C78.4427 14.9844 78.2969 15.2031 78.1094 15.3906C77.9219 15.5781 77.6979 15.7292 77.4375 15.8438C77.1875 15.9479 76.9167 16 76.625 16H65.7656C65.4844 16 65.2188 15.9479 64.9688 15.8438C64.7188 15.7292 64.5 15.5781 64.3125 15.3906C64.125 15.2031 63.974 14.9844 63.8594 14.7344C63.7552 14.4844 63.7031 14.2188 63.7031 13.9375C63.6927 13.6771 63.7396 13.4271 63.8438 13.1875C63.9479 12.9479 64.1042 12.724 64.3125 12.5156L71.7031 5.03125H65.875C65.5938 5.03125 65.3281 4.97917 65.0781 4.875C64.8281 4.76042 64.6094 4.60938 64.4219 4.42188C64.2448 4.23438 64.099 4.01562 63.9844 3.76562C63.8802 3.51562 63.8281 3.24479 63.8281 2.95312C63.8281 2.67188 63.8802 2.41146 63.9844 2.17188C64.099 1.92188 64.2448 1.70312 64.4219 1.51562C64.6094 1.32812 64.8281 1.18229 65.0781 1.07812C65.3281 0.973958 65.5938 0.921875 65.875 0.921875H76.2969Z" fill="url(#paint3_linear_13_4)"/>
<defs>
<linearGradient id="paint0_linear_13_4" x1="25" y1="1" x2="26" y2="21.5" gradientUnits="userSpaceOnUse">
<stop stop-color="#3B2B50"/>
<stop offset="1" stop-color="#7143BB" stop-opacity="0.75"/>
</linearGradient>
<linearGradient id="paint1_linear_13_4" x1="25" y1="1" x2="26" y2="21.5" gradientUnits="userSpaceOnUse">
<stop stop-color="#3B2B50"/>
<stop offset="1" stop-color="#7143BB" stop-opacity="0.75"/>
</linearGradient>
<linearGradient id="paint2_linear_13_4" x1="25" y1="1" x2="26" y2="21.5" gradientUnits="userSpaceOnUse">
<stop stop-color="#3B2B50"/>
<stop offset="1" stop-color="#7143BB" stop-opacity="0.75"/>
</linearGradient>
<linearGradient id="paint3_linear_13_4" x1="25" y1="1" x2="26" y2="21.5" gradientUnits="userSpaceOnUse">
<stop stop-color="#3B2B50"/>
<stop offset="1" stop-color="#7143BB" stop-opacity="0.75"/>
</linearGradient>
</defs>
</svg>
