<svg width="116" height="32" viewBox="0 0 116 32" fill="none" xmlns="http://www.w3.org/2000/svg">
<path d="M0 3.23438C0 2.78125 0.078125 2.35938 0.234375 1.96875C0.40625 1.5625 0.632812 1.21875 0.914062 0.9375C1.19531 0.640625 1.52344 0.414062 1.89844 0.257812C2.28906 0.0859375 2.70312 0 3.14062 0C3.57812 0 3.98438 0.0859375 4.35938 0.257812C4.75 0.414062 5.07812 0.640625 5.34375 0.9375C5.625 1.21875 5.84375 1.5625 6 1.96875C6.15625 2.35938 6.23438 2.78125 6.23438 3.23438V10.4297C6.48438 10.1328 6.80469 9.85938 7.19531 9.60938C7.60156 9.35938 8.03906 9.14062 8.50781 8.95312C8.99219 8.76562 9.48438 8.61719 9.98438 8.50781C10.5 8.39844 10.9922 8.34375 11.4609 8.34375C13.0234 8.34375 14.5 8.64844 15.8906 9.25781C17.2812 9.85156 18.4922 10.6719 19.5234 11.7188C20.5547 12.75 21.3672 13.9609 21.9609 15.3516C22.5703 16.7422 22.875 18.2266 22.875 19.8047C22.875 21.3828 22.5703 22.8672 21.9609 24.2578C21.3672 25.6328 20.5547 26.8359 19.5234 27.8672C18.4922 28.8984 17.2812 29.7188 15.8906 30.3281C14.5 30.9219 13.0234 31.2188 11.4609 31.2188C9.88281 31.2188 8.39844 30.9219 7.00781 30.3281C5.63281 29.7188 4.42188 28.8984 3.375 27.8672C2.32812 26.8359 1.5 25.6328 0.890625 24.2578C0.296875 22.8672 0 21.3828 0 19.8047V3.23438ZM6.25781 19.8047C6.25781 20.5234 6.39062 21.1953 6.65625 21.8203C6.9375 22.4453 7.3125 22.9922 7.78125 23.4609C8.26562 23.9297 8.82031 24.2969 9.44531 24.5625C10.0859 24.8281 10.7578 24.9609 11.4609 24.9609C12.1797 24.9609 12.8516 24.8281 13.4766 24.5625C14.1016 24.2969 14.6484 23.9297 15.1172 23.4609C15.5859 22.9922 15.9531 22.4453 16.2188 21.8203C16.5 21.1953 16.6406 20.5234 16.6406 19.8047C16.6406 19.0859 16.5 18.4141 16.2188 17.7891C15.9531 17.1641 15.5859 16.6172 15.1172 16.1484C14.6484 15.6797 14.1016 15.3125 13.4766 15.0469C12.8516 14.7812 12.1797 14.6484 11.4609 14.6484C10.7578 14.6484 10.0859 14.7812 9.44531 15.0469C8.82031 15.3125 8.26562 15.6797 7.78125 16.1484C7.3125 16.6172 6.9375 17.1641 6.65625 17.7891C6.39062 18.4141 6.25781 19.0859 6.25781 19.8047Z" fill="url(#paint0_linear_16_6)"/>
<path d="M26.0156 11.4375C26.0156 11.0156 26.0938 10.6172 26.25 10.2422C26.4219 9.86719 26.6484 9.53906 26.9297 9.25781C27.2109 8.97656 27.5391 8.75781 27.9141 8.60156C28.2891 8.42969 28.6875 8.34375 29.1094 8.34375C29.5312 8.34375 29.9297 8.42969 30.3047 8.60156C30.6953 8.75781 31.0312 8.97656 31.3125 9.25781C31.6094 9.53906 31.8359 9.86719 31.9922 10.2422C32.1641 10.6172 32.25 11.0156 32.25 11.4375V20.1797C32.25 20.8672 32.375 21.5078 32.625 22.1016C32.875 22.6797 33.2188 23.1875 33.6562 23.625C34.1094 24.0469 34.6328 24.3828 35.2266 24.6328C35.8359 24.8672 36.4844 24.9844 37.1719 24.9844C37.8594 24.9844 38.4766 24.8594 39.0234 24.6094C39.5703 24.3594 40.0312 24.0156 40.4062 23.5781C40.7812 23.1406 41.0703 22.625 41.2734 22.0312C41.4766 21.4375 41.5781 20.7969 41.5781 20.1094V11.4375C41.5781 11.0156 41.6641 10.6172 41.8359 10.2422C42.0078 9.86719 42.2344 9.53906 42.5156 9.25781C42.8125 8.97656 43.1562 8.75781 43.5469 8.60156C43.9375 8.42969 44.3438 8.34375 44.7656 8.34375C45.1875 8.34375 45.5859 8.42969 45.9609 8.60156C46.3359 8.75781 46.6562 8.97656 46.9219 9.25781C47.2031 9.53906 47.4219 9.86719 47.5781 10.2422C47.7344 10.6172 47.8125 11.0156 47.8125 11.4375V20.1094C47.8125 21.6406 47.5469 23.0781 47.0156 24.4219C46.4844 25.7656 45.7422 26.9453 44.7891 27.9609C43.8359 28.9609 42.7109 29.7578 41.4141 30.3516C40.1172 30.9297 38.7031 31.2188 37.1719 31.2188C35.6406 31.2188 34.1953 30.9297 32.8359 30.3516C31.4766 29.7578 30.2891 28.9609 29.2734 27.9609C28.2734 26.9453 27.4766 25.7656 26.8828 24.4219C26.3047 23.0781 26.0156 21.6406 26.0156 20.1094V11.4375Z" fill="url(#paint1_linear_16_6)"/>
<path d="M69.8438 8.34375C70.125 8.34375 70.4453 8.39844 70.8047 8.50781C71.1641 8.61719 71.5 8.78906 71.8125 9.02344C72.1406 9.25781 72.4062 9.57031 72.6094 9.96094C72.8281 10.3516 72.9375 10.8281 72.9375 11.3906C72.9375 11.8906 72.8359 12.3516 72.6328 12.7734C72.4297 13.1953 72.1484 13.5469 71.7891 13.8281L60.8438 24.8906H70.3359C70.7734 24.8906 71.1797 24.9688 71.5547 25.125C71.9453 25.2656 72.2812 25.4766 72.5625 25.7578C72.8438 26.0234 73.0625 26.3359 73.2188 26.6953C73.3906 27.0547 73.4766 27.4453 73.4766 27.8672C73.4766 28.2891 73.3906 28.6875 73.2188 29.0625C73.0625 29.4375 72.8438 29.7656 72.5625 30.0469C72.2812 30.3281 71.9453 30.5547 71.5547 30.7266C71.1797 30.8828 70.7734 30.9609 70.3359 30.9609H54.0469C53.625 30.9609 53.2266 30.8828 52.8516 30.7266C52.4766 30.5547 52.1484 30.3281 51.8672 30.0469C51.5859 29.7656 51.3594 29.4375 51.1875 29.0625C51.0312 28.6875 50.9531 28.2891 50.9531 27.8672C50.9375 27.4766 51.0078 27.1016 51.1641 26.7422C51.3203 26.3828 51.5547 26.0469 51.8672 25.7344L62.9531 14.5078H54.2109C53.7891 14.5078 53.3906 14.4297 53.0156 14.2734C52.6406 14.1016 52.3125 13.875 52.0312 13.5938C51.7656 13.3125 51.5469 12.9844 51.375 12.6094C51.2188 12.2344 51.1406 11.8281 51.1406 11.3906C51.1406 10.9688 51.2188 10.5781 51.375 10.2188C51.5469 9.84375 51.7656 9.51562 52.0312 9.23438C52.3125 8.95312 52.6406 8.73438 53.0156 8.57812C53.3906 8.42188 53.7891 8.34375 54.2109 8.34375H69.8438Z" fill="url(#paint2_linear_16_6)"/>
<path d="M94.4531 8.34375C94.7344 8.34375 95.0547 8.39844 95.4141 8.50781C95.7734 8.61719 96.1094 8.78906 96.4219 9.02344C96.75 9.25781 97.0156 9.57031 97.2188 9.96094C97.4375 10.3516 97.5469 10.8281 97.5469 11.3906C97.5469 11.8906 97.4453 12.3516 97.2422 12.7734C97.0391 13.1953 96.7578 13.5469 96.3984 13.8281L85.4531 24.8906H94.9453C95.3828 24.8906 95.7891 24.9688 96.1641 25.125C96.5547 25.2656 96.8906 25.4766 97.1719 25.7578C97.4531 26.0234 97.6719 26.3359 97.8281 26.6953C98 27.0547 98.0859 27.4453 98.0859 27.8672C98.0859 28.2891 98 28.6875 97.8281 29.0625C97.6719 29.4375 97.4531 29.7656 97.1719 30.0469C96.8906 30.3281 96.5547 30.5547 96.1641 30.7266C95.7891 30.8828 95.3828 30.9609 94.9453 30.9609H78.6562C78.2344 30.9609 77.8359 30.8828 77.4609 30.7266C77.0859 30.5547 76.7578 30.3281 76.4766 30.0469C76.1953 29.7656 75.9688 29.4375 75.7969 29.0625C75.6406 28.6875 75.5625 28.2891 75.5625 27.8672C75.5469 27.4766 75.6172 27.1016 75.7734 26.7422C75.9297 26.3828 76.1641 26.0469 76.4766 25.7344L87.5625 14.5078H78.8203C78.3984 14.5078 78 14.4297 77.625 14.2734C77.25 14.1016 76.9219 13.875 76.6406 13.5938C76.375 13.3125 76.1562 12.9844 75.9844 12.6094C75.8281 12.2344 75.75 11.8281 75.75 11.3906C75.75 10.9688 75.8281 10.5781 75.9844 10.2188C76.1562 9.84375 76.375 9.51562 76.6406 9.23438C76.9219 8.95312 77.25 8.73438 77.625 8.57812C78 8.42188 78.3984 8.34375 78.8203 8.34375H94.4531Z" fill="url(#paint3_linear_16_6)"/>
<path d="M113.211 1.88281C113.398 1.88281 113.612 1.91927 113.852 1.99219C114.091 2.0651 114.315 2.17969 114.523 2.33594C114.742 2.49219 114.919 2.70052 115.055 2.96094C115.201 3.22135 115.273 3.53906 115.273 3.91406C115.273 4.2474 115.206 4.55469 115.07 4.83594C114.935 5.11719 114.747 5.35156 114.508 5.53906L107.211 12.9141H113.539C113.831 12.9141 114.102 12.9661 114.352 13.0703C114.612 13.1641 114.836 13.3047 115.023 13.4922C115.211 13.6693 115.357 13.8776 115.461 14.1172C115.576 14.3568 115.633 14.6172 115.633 14.8984C115.633 15.1797 115.576 15.4453 115.461 15.6953C115.357 15.9453 115.211 16.1641 115.023 16.3516C114.836 16.5391 114.612 16.6901 114.352 16.8047C114.102 16.9089 113.831 16.9609 113.539 16.9609H102.68C102.398 16.9609 102.133 16.9089 101.883 16.8047C101.633 16.6901 101.414 16.5391 101.227 16.3516C101.039 16.1641 100.888 15.9453 100.773 15.6953C100.669 15.4453 100.617 15.1797 100.617 14.8984C100.607 14.638 100.654 14.388 100.758 14.1484C100.862 13.9089 101.018 13.6849 101.227 13.4766L108.617 5.99219H102.789C102.508 5.99219 102.242 5.9401 101.992 5.83594C101.742 5.72135 101.523 5.57031 101.336 5.38281C101.159 5.19531 101.013 4.97656 100.898 4.72656C100.794 4.47656 100.742 4.20573 100.742 3.91406C100.742 3.63281 100.794 3.3724 100.898 3.13281C101.013 2.88281 101.159 2.66406 101.336 2.47656C101.523 2.28906 101.742 2.14323 101.992 2.03906C102.242 1.9349 102.508 1.88281 102.789 1.88281H113.211Z" fill="url(#paint4_linear_16_6)"/>
<defs>
<linearGradient id="paint0_linear_16_6" x1="57.8164" y1="-1.07799e-08" x2="57.9141" y2="37.4609" gradientUnits="userSpaceOnUse">
<stop stop-color="#3D2F50"/>
<stop offset="1" stop-color="#8C56E4" stop-opacity="0.78"/>
</linearGradient>
<linearGradient id="paint1_linear_16_6" x1="57.8164" y1="-1.07799e-08" x2="57.9141" y2="37.4609" gradientUnits="userSpaceOnUse">
<stop stop-color="#3D2F50"/>
<stop offset="1" stop-color="#8C56E4" stop-opacity="0.78"/>
</linearGradient>
<linearGradient id="paint2_linear_16_6" x1="57.8164" y1="-1.07799e-08" x2="57.9141" y2="37.4609" gradientUnits="userSpaceOnUse">
<stop stop-color="#3D2F50"/>
<stop offset="1" stop-color="#8C56E4" stop-opacity="0.78"/>
</linearGradient>
<linearGradient id="paint3_linear_16_6" x1="57.8164" y1="-1.07799e-08" x2="57.9141" y2="37.4609" gradientUnits="userSpaceOnUse">
<stop stop-color="#3D2F50"/>
<stop offset="1" stop-color="#8C56E4" stop-opacity="0.78"/>
</linearGradient>
<linearGradient id="paint4_linear_16_6" x1="57.8164" y1="-1.07799e-08" x2="57.9141" y2="37.4609" gradientUnits="userSpaceOnUse">
<stop stop-color="#3D2F50"/>
<stop offset="1" stop-color="#8C56E4" stop-opacity="0.78"/>
</linearGradient>
</defs>
</svg>
