<svg width="247" height="84" viewBox="0 0 247 84" fill="none" xmlns="http://www.w3.org/2000/svg">
<path d="M0 8.625C0 7.41667 0.208333 6.29167 0.625 5.25C1.08333 4.16667 1.6875 3.25 2.4375 2.5C3.1875 1.70833 4.0625 1.10417 5.0625 0.6875C6.10417 0.229167 7.20833 0 8.375 0C9.54167 0 10.625 0.229167 11.625 0.6875C12.6667 1.10417 13.5417 1.70833 14.25 2.5C15 3.25 15.5833 4.16667 16 5.25C16.4167 6.29167 16.625 7.41667 16.625 8.625V27.8125C17.2917 27.0208 18.1458 26.2917 19.1875 25.625C20.2708 24.9583 21.4375 24.375 22.6875 23.875C23.9792 23.375 25.2917 22.9792 26.625 22.6875C28 22.3958 29.3125 22.25 30.5625 22.25C34.7292 22.25 38.6667 23.0625 42.375 24.6875C46.0833 26.2708 49.3125 28.4583 52.0625 31.25C54.8125 34 56.9792 37.2292 58.5625 40.9375C60.1875 44.6458 61 48.6042 61 52.8125C61 57.0208 60.1875 60.9792 58.5625 64.6875C56.9792 68.3542 54.8125 71.5625 52.0625 74.3125C49.3125 77.0625 46.0833 79.25 42.375 80.875C38.6667 82.4583 34.7292 83.25 30.5625 83.25C26.3542 83.25 22.3958 82.4583 18.6875 80.875C15.0208 79.25 11.7917 77.0625 9 74.3125C6.20833 71.5625 4 68.3542 2.375 64.6875C0.791667 60.9792 0 57.0208 0 52.8125V8.625ZM16.6875 52.8125C16.6875 54.7292 17.0417 56.5208 17.75 58.1875C18.5 59.8542 19.5 61.3125 20.75 62.5625C22.0417 63.8125 23.5208 64.7917 25.1875 65.5C26.8958 66.2083 28.6875 66.5625 30.5625 66.5625C32.4792 66.5625 34.2708 66.2083 35.9375 65.5C37.6042 64.7917 39.0625 63.8125 40.3125 62.5625C41.5625 61.3125 42.5417 59.8542 43.25 58.1875C44 56.5208 44.375 54.7292 44.375 52.8125C44.375 50.8958 44 49.1042 43.25 47.4375C42.5417 45.7708 41.5625 44.3125 40.3125 43.0625C39.0625 41.8125 37.6042 40.8333 35.9375 40.125C34.2708 39.4167 32.4792 39.0625 30.5625 39.0625C28.6875 39.0625 26.8958 39.4167 25.1875 40.125C23.5208 40.8333 22.0417 41.8125 20.75 43.0625C19.5 44.3125 18.5 45.7708 17.75 47.4375C17.0417 49.1042 16.6875 50.8958 16.6875 52.8125Z" fill="url(#paint0_linear_5_31)"/>
<path d="M69.375 30.5C69.375 29.375 69.5833 28.3125 70 27.3125C70.4583 26.3125 71.0625 25.4375 71.8125 24.6875C72.5625 23.9375 73.4375 23.3542 74.4375 22.9375C75.4375 22.4792 76.5 22.25 77.625 22.25C78.75 22.25 79.8125 22.4792 80.8125 22.9375C81.8542 23.3542 82.75 23.9375 83.5 24.6875C84.2917 25.4375 84.8958 26.3125 85.3125 27.3125C85.7708 28.3125 86 29.375 86 30.5V53.8125C86 55.6458 86.3333 57.3542 87 58.9375C87.6667 60.4792 88.5833 61.8333 89.75 63C90.9583 64.125 92.3542 65.0208 93.9375 65.6875C95.5625 66.3125 97.2917 66.625 99.125 66.625C100.958 66.625 102.604 66.2917 104.062 65.625C105.521 64.9583 106.75 64.0417 107.75 62.875C108.75 61.7083 109.521 60.3333 110.062 58.75C110.604 57.1667 110.875 55.4583 110.875 53.625V30.5C110.875 29.375 111.104 28.3125 111.562 27.3125C112.021 26.3125 112.625 25.4375 113.375 24.6875C114.167 23.9375 115.083 23.3542 116.125 22.9375C117.167 22.4792 118.25 22.25 119.375 22.25C120.5 22.25 121.562 22.4792 122.562 22.9375C123.562 23.3542 124.417 23.9375 125.125 24.6875C125.875 25.4375 126.458 26.3125 126.875 27.3125C127.292 28.3125 127.5 29.375 127.5 30.5V53.625C127.5 57.7083 126.792 61.5417 125.375 65.125C123.958 68.7083 121.979 71.8542 119.438 74.5625C116.896 77.2292 113.896 79.3542 110.438 80.9375C106.979 82.4792 103.208 83.25 99.125 83.25C95.0417 83.25 91.1875 82.4792 87.5625 80.9375C83.9375 79.3542 80.7708 77.2292 78.0625 74.5625C75.3958 71.8542 73.2708 68.7083 71.6875 65.125C70.1458 61.5417 69.375 57.7083 69.375 53.625V30.5Z" fill="url(#paint1_linear_5_31)"/>
<path d="M186.25 22.25C187 22.25 187.854 22.3958 188.812 22.6875C189.771 22.9792 190.667 23.4375 191.5 24.0625C192.375 24.6875 193.083 25.5208 193.625 26.5625C194.208 27.6042 194.5 28.875 194.5 30.375C194.5 31.7083 194.229 32.9375 193.688 34.0625C193.146 35.1875 192.396 36.125 191.438 36.875L162.25 66.375H187.562C188.729 66.375 189.812 66.5833 190.812 67C191.854 67.375 192.75 67.9375 193.5 68.6875C194.25 69.3958 194.833 70.2292 195.25 71.1875C195.708 72.1458 195.938 73.1875 195.938 74.3125C195.938 75.4375 195.708 76.5 195.25 77.5C194.833 78.5 194.25 79.375 193.5 80.125C192.75 80.875 191.854 81.4792 190.812 81.9375C189.812 82.3542 188.729 82.5625 187.562 82.5625H144.125C143 82.5625 141.938 82.3542 140.938 81.9375C139.938 81.4792 139.062 80.875 138.312 80.125C137.562 79.375 136.958 78.5 136.5 77.5C136.083 76.5 135.875 75.4375 135.875 74.3125C135.833 73.2708 136.021 72.2708 136.438 71.3125C136.854 70.3542 137.479 69.4583 138.312 68.625L167.875 38.6875H144.562C143.438 38.6875 142.375 38.4792 141.375 38.0625C140.375 37.6042 139.5 37 138.75 36.25C138.042 35.5 137.458 34.625 137 33.625C136.583 32.625 136.375 31.5417 136.375 30.375C136.375 29.25 136.583 28.2083 137 27.25C137.458 26.25 138.042 25.375 138.75 24.625C139.5 23.875 140.375 23.2917 141.375 22.875C142.375 22.4583 143.438 22.25 144.562 22.25H186.25Z" fill="url(#paint2_linear_5_31)"/>
<path d="M239.328 2.32812C239.891 2.32812 240.531 2.4375 241.25 2.65625C241.969 2.875 242.641 3.21875 243.266 3.6875C243.922 4.15625 244.453 4.78125 244.859 5.5625C245.297 6.34375 245.516 7.29688 245.516 8.42188C245.516 9.42188 245.312 10.3438 244.906 11.1875C244.5 12.0312 243.938 12.7344 243.219 13.2969L221.328 35.4219H240.312C241.188 35.4219 242 35.5781 242.75 35.8906C243.531 36.1719 244.203 36.5938 244.766 37.1562C245.328 37.6875 245.766 38.3125 246.078 39.0312C246.422 39.75 246.594 40.5312 246.594 41.375C246.594 42.2188 246.422 43.0156 246.078 43.7656C245.766 44.5156 245.328 45.1719 244.766 45.7344C244.203 46.2969 243.531 46.75 242.75 47.0938C242 47.4062 241.188 47.5625 240.312 47.5625H207.734C206.891 47.5625 206.094 47.4062 205.344 47.0938C204.594 46.75 203.938 46.2969 203.375 45.7344C202.812 45.1719 202.359 44.5156 202.016 43.7656C201.703 43.0156 201.547 42.2188 201.547 41.375C201.516 40.5938 201.656 39.8438 201.969 39.125C202.281 38.4062 202.75 37.7344 203.375 37.1094L225.547 14.6562H208.062C207.219 14.6562 206.422 14.5 205.672 14.1875C204.922 13.8438 204.266 13.3906 203.703 12.8281C203.172 12.2656 202.734 11.6094 202.391 10.8594C202.078 10.1094 201.922 9.29688 201.922 8.42188C201.922 7.57812 202.078 6.79688 202.391 6.07812C202.734 5.32812 203.172 4.67188 203.703 4.10938C204.266 3.54688 204.922 3.10938 205.672 2.79688C206.422 2.48438 207.219 2.32812 208.062 2.32812H239.328Z" fill="url(#paint3_linear_5_31)"/>
<defs>
<linearGradient id="paint0_linear_5_31" x1="42.4375" y1="41.5625" x2="236.437" y2="59.5625" gradientUnits="userSpaceOnUse">
<stop stop-color="#5300BB"/>
<stop offset="1" stop-color="#7000FF" stop-opacity="0.73"/>
</linearGradient>
<linearGradient id="paint1_linear_5_31" x1="42.4375" y1="41.5625" x2="236.437" y2="59.5625" gradientUnits="userSpaceOnUse">
<stop stop-color="#5300BB"/>
<stop offset="1" stop-color="#7000FF" stop-opacity="0.73"/>
</linearGradient>
<linearGradient id="paint2_linear_5_31" x1="42.4375" y1="41.5625" x2="236.437" y2="59.5625" gradientUnits="userSpaceOnUse">
<stop stop-color="#5300BB"/>
<stop offset="1" stop-color="#7000FF" stop-opacity="0.73"/>
</linearGradient>
<linearGradient id="paint3_linear_5_31" x1="42.4375" y1="41.5625" x2="236.437" y2="59.5625" gradientUnits="userSpaceOnUse">
<stop stop-color="#5300BB"/>
<stop offset="1" stop-color="#7000FF" stop-opacity="0.73"/>
</linearGradient>
</defs>
</svg>
