<svg width="115" height="55" viewBox="0 0 115 55" fill="none" xmlns="http://www.w3.org/2000/svg">
<path d="M26.5938 12.8438C26.9688 12.8438 27.3958 12.9167 27.875 13.0625C28.3542 13.2083 28.8021 13.4375 29.2188 13.75C29.6562 14.0625 30.0104 14.4792 30.2812 15C30.5729 15.5208 30.7188 16.1562 30.7188 16.9062C30.7188 17.5729 30.5833 18.1875 30.3125 18.75C30.0417 19.3125 29.6667 19.7812 29.1875 20.1562L14.5938 34.9062H27.25C27.8333 34.9062 28.375 35.0104 28.875 35.2188C29.3958 35.4062 29.8438 35.6875 30.2188 36.0625C30.5938 36.4167 30.8854 36.8333 31.0938 37.3125C31.3229 37.7917 31.4375 38.3125 31.4375 38.875C31.4375 39.4375 31.3229 39.9688 31.0938 40.4688C30.8854 40.9688 30.5938 41.4062 30.2188 41.7812C29.8438 42.1562 29.3958 42.4583 28.875 42.6875C28.375 42.8958 27.8333 43 27.25 43H5.53125C4.96875 43 4.4375 42.8958 3.9375 42.6875C3.4375 42.4583 3 42.1562 2.625 41.7812C2.25 41.4062 1.94792 40.9688 1.71875 40.4688C1.51042 39.9688 1.40625 39.4375 1.40625 38.875C1.38542 38.3542 1.47917 37.8542 1.6875 37.375C1.89583 36.8958 2.20833 36.4479 2.625 36.0312L17.4062 21.0625H5.75C5.1875 21.0625 4.65625 20.9583 4.15625 20.75C3.65625 20.5208 3.21875 20.2188 2.84375 19.8438C2.48958 19.4688 2.19792 19.0312 1.96875 18.5312C1.76042 18.0312 1.65625 17.4896 1.65625 16.9062C1.65625 16.3438 1.76042 15.8229 1.96875 15.3438C2.19792 14.8438 2.48958 14.4062 2.84375 14.0312C3.21875 13.6562 3.65625 13.3646 4.15625 13.1562C4.65625 12.9479 5.1875 12.8438 5.75 12.8438H26.5938Z" fill="url(#paint0_linear_23_31)"/>
<path d="M109.922 26.5234C110.359 26.5234 110.766 26.6094 111.141 26.7812C111.531 26.9375 111.867 27.1562 112.148 27.4375C112.445 27.7031 112.672 28.0234 112.828 28.3984C113 28.7578 113.086 29.1562 113.086 29.5938V36.6016C113.086 37.0859 112.984 37.5156 112.781 37.8906C112.594 38.25 112.352 38.5859 112.055 38.8984C110.211 40.4922 108.344 41.625 106.453 42.2969C104.562 42.9531 102.602 43.2812 100.57 43.2812C99.2109 43.2656 97.8828 43.0703 96.5859 42.6953C95.3047 42.3203 94.0938 41.7969 92.9531 41.125C91.8281 40.4531 90.7969 39.6484 89.8594 38.7109C88.9219 37.7734 88.1094 36.7344 87.4219 35.5938C86.75 34.4375 86.2266 33.2031 85.8516 31.8906C85.4766 30.5625 85.2891 29.1797 85.2891 27.7422C85.2891 26.3203 85.4688 24.9453 85.8281 23.6172C86.1875 22.2891 86.6953 21.0469 87.3516 19.8906C88.0234 18.7188 88.8203 17.6562 89.7422 16.7031C90.6797 15.75 91.7188 14.9297 92.8594 14.2422C94.0156 13.5547 95.25 13.0234 96.5625 12.6484C97.8906 12.2578 99.2734 12.0625 100.711 12.0625C102.93 12.0625 104.953 12.4531 106.781 13.2344C108.625 14 110.328 15.1562 111.891 16.7031C112.203 17.0156 112.43 17.3594 112.57 17.7344C112.727 18.0938 112.805 18.4688 112.805 18.8594C112.805 19.2656 112.719 19.6562 112.547 20.0312C112.375 20.4062 112.141 20.7344 111.844 21.0156C111.562 21.2969 111.227 21.5234 110.836 21.6953C110.445 21.8672 110.039 21.9531 109.617 21.9531C109.227 21.9531 108.852 21.8828 108.492 21.7422C108.133 21.6016 107.805 21.3828 107.508 21.0859C106.555 20.1484 105.5 19.4609 104.344 19.0234C103.203 18.5859 102.016 18.3672 100.781 18.3672C99.5312 18.3672 98.3438 18.6094 97.2188 19.0938C96.1094 19.5625 95.1328 20.2188 94.2891 21.0625C93.4453 21.8906 92.7734 22.875 92.2734 24.0156C91.7891 25.1562 91.5469 26.3828 91.5469 27.6953C91.5469 28.9609 91.7812 30.1641 92.25 31.3047C92.7344 32.4297 93.3906 33.4219 94.2188 34.2812C95.0625 35.125 96.0547 35.7969 97.1953 36.2969C98.3359 36.7969 99.5781 37.0469 100.922 37.0469C101.984 37.0469 103 36.9141 103.969 36.6484C104.938 36.3828 105.883 35.8984 106.805 35.1953V32.7109H104.273C103.836 32.7109 103.43 32.6328 103.055 32.4766C102.68 32.3047 102.352 32.0781 102.07 31.7969C101.805 31.5156 101.594 31.1875 101.438 30.8125C101.281 30.4219 101.203 30.0156 101.203 29.5938C101.203 29.1719 101.281 28.7734 101.438 28.3984C101.594 28.0234 101.805 27.6875 102.07 27.3906C102.352 27.0938 102.68 26.8672 103.055 26.7109C103.43 26.5391 103.836 26.4531 104.273 26.4531L109.922 26.5234Z" fill="url(#paint1_linear_23_31)"/>
<path d="M50.8125 27.6875C50.8125 25.6458 51.1979 23.7292 51.9688 21.9375C52.7604 20.125 53.8229 18.5521 55.1562 17.2188C56.5104 15.8646 58.0833 14.8021 59.875 14.0312C61.6667 13.2396 63.5833 12.8438 65.625 12.8438C67.6875 12.8438 69.6354 13.2396 71.4688 14.0312C73.3021 14.8021 74.9167 15.8646 76.3125 17.2188C77.7083 18.5521 78.8125 20.125 79.625 21.9375C80.4375 23.7292 80.8438 25.6458 80.8438 27.6875V38.9375C80.8438 39.5208 80.7396 40.0625 80.5312 40.5625C80.3229 41.0417 80.0312 41.4688 79.6562 41.8438C79.3021 42.1979 78.875 42.4792 78.375 42.6875C77.875 42.8958 77.3438 43 76.7812 43C76.1979 43 75.6458 42.8958 75.125 42.6875C74.625 42.4792 74.1771 42.1979 73.7812 41.8438C73.4062 41.4688 73.1042 41.0417 72.875 40.5625C72.6667 40.0625 72.5625 39.5208 72.5625 38.9375V27.7188C72.5417 26.8229 72.3333 25.9792 71.9375 25.1875C71.5625 24.3958 71.0521 23.7083 70.4062 23.125C69.7604 22.5208 69.0208 22.0521 68.1875 21.7188C67.375 21.3646 66.5208 21.1875 65.625 21.1875C64.7292 21.1875 63.8854 21.3542 63.0938 21.6875C62.3229 22 61.6458 22.4479 61.0625 23.0312C60.5 23.5938 60.0417 24.2604 59.6875 25.0312C59.3542 25.8021 59.1771 26.6354 59.1562 27.5312V38.9375C59.1562 39.5208 59.0521 40.0625 58.8438 40.5625C58.6354 41.0417 58.3438 41.4688 57.9688 41.8438C57.5938 42.1979 57.1562 42.4792 56.6562 42.6875C56.1771 42.8958 55.6562 43 55.0938 43C54.5312 43 53.9896 42.8958 53.4688 42.6875C52.9479 42.4792 52.4896 42.1979 52.0938 41.8438C51.6979 41.4688 51.3854 41.0417 51.1562 40.5625C50.9271 40.0625 50.8125 39.5208 50.8125 38.9375V27.6875Z" fill="url(#paint2_linear_23_31)"/>
<path d="M44.813 38.8818C44.8112 39.3506 44.7236 39.7799 44.5502 40.1698C44.3611 40.5754 44.1175 40.926 43.8195 41.2217C43.5058 41.533 43.1454 41.7737 42.7385 41.944C42.3316 42.1143 41.9016 42.1986 41.4485 42.1968C40.9953 42.195 40.566 42.1074 40.1604 41.934C39.7548 41.7605 39.4042 41.5169 39.1086 41.2033C38.7972 40.9052 38.5564 40.5527 38.3861 40.1458C38.2002 39.7544 38.1081 39.3244 38.1099 38.8556C38.1117 38.4025 38.2071 37.9732 38.3962 37.5677C38.5697 37.1621 38.8133 36.8037 39.127 36.4924C39.425 36.1967 39.7775 35.9637 40.1844 35.7934C40.5913 35.6231 41.0214 35.5388 41.4745 35.5406C41.9276 35.5424 42.3569 35.63 42.7625 35.8035C43.1681 35.9769 43.5266 36.2127 43.8379 36.5108C44.1335 36.8244 44.3743 37.1848 44.5602 37.5917C44.7305 37.9987 44.8148 38.4287 44.813 38.8818ZM44.658 30.5608C44.6564 30.9827 44.5689 31.3808 44.3955 31.7551C44.2222 32.1294 43.9944 32.4567 43.712 32.7368C43.414 33.0169 43.0694 33.2343 42.6782 33.389C42.2869 33.5594 41.8725 33.6437 41.435 33.642C41.0131 33.6404 40.615 33.5529 40.2407 33.3795C39.8663 33.2218 39.5469 33.0018 39.2824 32.7195C39.0022 32.4372 38.7847 32.1082 38.63 31.7326C38.4752 31.357 38.3986 30.9582 38.4003 30.5364L38.4655 13.849C38.4671 13.4271 38.5546 13.029 38.7279 12.6547C38.8857 12.2803 39.1057 11.953 39.388 11.6729C39.6704 11.3928 39.9994 11.1753 40.375 11.0205C40.7506 10.8501 41.1494 10.7657 41.5713 10.7674C41.9931 10.769 42.3991 10.8565 42.789 11.0299C43.1634 11.1876 43.4985 11.4077 43.7942 11.6901C44.0744 11.9725 44.2997 12.3015 44.4701 12.6771C44.6405 13.0528 44.7249 13.4516 44.7232 13.8735L44.658 30.5608Z" fill="url(#paint3_linear_23_31)"/>
<defs>
<linearGradient id="paint0_linear_23_31" x1="31.9" y1="11" x2="0.122742" y2="12.0013" gradientUnits="userSpaceOnUse">
<stop stop-color="#45276B"/>
<stop offset="1" stop-color="#8D56D3" stop-opacity="0.99"/>
</linearGradient>
<linearGradient id="paint1_linear_23_31" x1="113.967" y1="19.2" x2="84.1327" y2="20.3847" gradientUnits="userSpaceOnUse">
<stop stop-color="#45276B"/>
<stop offset="1" stop-color="#8D56D3" stop-opacity="0.99"/>
</linearGradient>
<linearGradient id="paint2_linear_23_31" x1="82.8333" y1="11" x2="49.1344" y2="12.1262" gradientUnits="userSpaceOnUse">
<stop stop-color="#45276B"/>
<stop offset="1" stop-color="#8D56D3" stop-opacity="0.99"/>
</linearGradient>
<linearGradient id="paint3_linear_23_31" x1="35.432" y1="34.8014" x2="46.9967" y2="34.6688" gradientUnits="userSpaceOnUse">
<stop stop-color="#45276B"/>
<stop offset="1" stop-color="#8D56D3" stop-opacity="0.99"/>
</linearGradient>
</defs>
</svg>
