<svg width="99" height="45" viewBox="0 0 99 45" fill="none" xmlns="http://www.w3.org/2000/svg">
<path d="M95.4414 21.6426C95.7695 21.6426 96.0742 21.707 96.3555 21.8359C96.6484 21.9531 96.9004 22.1172 97.1113 22.3281C97.334 22.5273 97.5039 22.7676 97.6211 23.0488C97.75 23.3184 97.8145 23.6172 97.8145 23.9453V29.2012C97.8145 29.5645 97.7383 29.8867 97.5859 30.168C97.4453 30.4375 97.2637 30.6895 97.041 30.9238C95.6582 32.1191 94.2578 32.9688 92.8398 33.4727C91.4219 33.9648 89.9512 34.2109 88.4277 34.2109C87.4082 34.1992 86.4121 34.0527 85.4395 33.7715C84.4785 33.4902 83.5703 33.0977 82.7148 32.5938C81.8711 32.0898 81.0977 31.4863 80.3945 30.7832C79.6914 30.0801 79.082 29.3008 78.5664 28.4453C78.0625 27.5781 77.6699 26.6523 77.3887 25.668C77.1074 24.6719 76.9668 23.6348 76.9668 22.5566C76.9668 21.4902 77.1016 20.459 77.3711 19.4629C77.6406 18.4668 78.0215 17.5352 78.5137 16.668C79.0176 15.7891 79.6152 14.9922 80.3066 14.2773C81.0098 13.5625 81.7891 12.9473 82.6445 12.4316C83.5117 11.916 84.4375 11.5176 85.4219 11.2363C86.418 10.9434 87.4551 10.7969 88.5332 10.7969C90.1973 10.7969 91.7148 11.0898 93.0859 11.6758C94.4688 12.25 95.7461 13.1172 96.918 14.2773C97.1523 14.5117 97.3223 14.7695 97.4277 15.0508C97.5449 15.3203 97.6035 15.6016 97.6035 15.8945C97.6035 16.1992 97.5391 16.4922 97.4102 16.7734C97.2812 17.0547 97.1055 17.3008 96.8828 17.5117C96.6719 17.7227 96.4199 17.8926 96.127 18.0215C95.834 18.1504 95.5293 18.2148 95.2129 18.2148C94.9199 18.2148 94.6387 18.1621 94.3691 18.0566C94.0996 17.9512 93.8535 17.7871 93.6309 17.5645C92.916 16.8613 92.125 16.3457 91.2578 16.0176C90.4023 15.6895 89.5117 15.5254 88.5859 15.5254C87.6484 15.5254 86.7578 15.707 85.9141 16.0703C85.082 16.4219 84.3496 16.9141 83.7168 17.5469C83.084 18.168 82.5801 18.9062 82.2051 19.7617C81.8418 20.6172 81.6602 21.5371 81.6602 22.5215C81.6602 23.4707 81.8359 24.373 82.1875 25.2285C82.5508 26.0723 83.043 26.8164 83.6641 27.4609C84.2969 28.0938 85.041 28.5977 85.8965 28.9727C86.752 29.3477 87.6836 29.5352 88.6914 29.5352C89.4883 29.5352 90.25 29.4355 90.9766 29.2363C91.7031 29.0371 92.4121 28.6738 93.1035 28.1465V26.2832H91.2051C90.877 26.2832 90.5723 26.2246 90.291 26.1074C90.0098 25.9785 89.7637 25.8086 89.5527 25.5977C89.3535 25.3867 89.1953 25.1406 89.0781 24.8594C88.9609 24.5664 88.9023 24.2617 88.9023 23.9453C88.9023 23.6289 88.9609 23.3301 89.0781 23.0488C89.1953 22.7676 89.3535 22.5156 89.5527 22.293C89.7637 22.0703 90.0098 21.9004 90.291 21.7832C90.5723 21.6543 90.877 21.5898 91.2051 21.5898L95.4414 21.6426Z" fill="url(#paint0_linear_33_14)"/>
<path d="M51.3594 21.5156C51.3594 19.9844 51.6484 18.5469 52.2266 17.2031C52.8203 15.8438 53.6172 14.6641 54.6172 13.6641C55.6328 12.6484 56.8125 11.8516 58.1562 11.2734C59.5 10.6797 60.9375 10.3828 62.4688 10.3828C64.0156 10.3828 65.4766 10.6797 66.8516 11.2734C68.2266 11.8516 69.4375 12.6484 70.4844 13.6641C71.5312 14.6641 72.3594 15.8438 72.9688 17.2031C73.5781 18.5469 73.8828 19.9844 73.8828 21.5156V29.9531C73.8828 30.3906 73.8047 30.7969 73.6484 31.1719C73.4922 31.5312 73.2734 31.8516 72.9922 32.1328C72.7266 32.3984 72.4062 32.6094 72.0312 32.7656C71.6562 32.9219 71.2578 33 70.8359 33C70.3984 33 69.9844 32.9219 69.5938 32.7656C69.2188 32.6094 68.8828 32.3984 68.5859 32.1328C68.3047 31.8516 68.0781 31.5312 67.9062 31.1719C67.75 30.7969 67.6719 30.3906 67.6719 29.9531V21.5391C67.6562 20.8672 67.5 20.2344 67.2031 19.6406C66.9219 19.0469 66.5391 18.5312 66.0547 18.0938C65.5703 17.6406 65.0156 17.2891 64.3906 17.0391C63.7812 16.7734 63.1406 16.6406 62.4688 16.6406C61.7969 16.6406 61.1641 16.7656 60.5703 17.0156C59.9922 17.25 59.4844 17.5859 59.0469 18.0234C58.625 18.4453 58.2812 18.9453 58.0156 19.5234C57.7656 20.1016 57.6328 20.7266 57.6172 21.3984V29.9531C57.6172 30.3906 57.5391 30.7969 57.3828 31.1719C57.2266 31.5312 57.0078 31.8516 56.7266 32.1328C56.4453 32.3984 56.1172 32.6094 55.7422 32.7656C55.3828 32.9219 54.9922 33 54.5703 33C54.1484 33 53.7422 32.9219 53.3516 32.7656C52.9609 32.6094 52.6172 32.3984 52.3203 32.1328C52.0234 31.8516 51.7891 31.5312 51.6172 31.1719C51.4453 30.7969 51.3594 30.3906 51.3594 29.9531V21.5156Z" fill="url(#paint1_linear_33_14)"/>
<path d="M45.2593 22.0909C45.2593 32.9358 35.1276 41.7273 22.6296 41.7273C10.1316 41.7273 0 32.9358 0 22.0909C0 11.246 10.1316 2.45455 22.6296 2.45455C35.1276 2.45455 45.2593 11.246 45.2593 22.0909Z" fill="url(#paint2_linear_33_14)"/>
<path fill-rule="evenodd" clip-rule="evenodd" d="M40.152 6.54035C35.7336 2.32502 29.8579 0.00248399 23.5991 0C10.7008 0 0.200721 10.003 0.195508 22.2988C0.195508 26.2285 1.2721 30.0638 3.31841 33.447L0 45L12.4056 41.8975C15.8257 43.6736 19.6733 44.61 23.5886 44.6125H23.5991C36.4947 44.6125 46.9948 34.6095 47 22.3137C47 16.3571 44.5705 10.7557 40.152 6.54035ZM23.5991 40.8492H23.5912C20.1008 40.8468 16.6781 39.955 13.6907 38.2634L12.9817 37.861L5.62019 39.7016L7.58308 32.8632L7.12169 32.1627C5.17443 29.2117 4.14737 25.8012 4.14737 22.2988C4.15258 12.0797 12.8774 3.76573 23.6069 3.76573C28.8022 3.76822 33.6846 5.69828 37.3576 9.20071C41.0279 12.7056 43.0507 17.3606 43.0481 22.3137C43.0429 32.5328 34.3181 40.8492 23.5991 40.8492ZM34.2686 26.9662C33.682 26.6855 30.8094 25.3392 30.2724 25.1529C29.738 24.9666 29.3496 24.8747 28.9586 25.4311C28.5676 25.9875 27.4466 27.2419 27.1052 27.6145C26.7637 27.9871 26.4222 28.0319 25.8383 27.7536C25.2544 27.4754 23.3697 26.8867 21.1357 24.989C19.3969 23.511 18.2239 21.6877 17.8824 21.1288C17.5409 20.5699 17.8459 20.2694 18.1405 19.9912C18.4038 19.7428 18.7244 19.3404 19.0164 19.015C19.3083 18.6896 19.4048 18.4585 19.6003 18.0859C19.7958 17.7133 19.6993 17.3879 19.5507 17.1097C19.4048 16.829 18.2343 14.0867 17.7469 12.9714C17.275 11.8909 16.7928 12.0349 16.4331 12.02C16.0942 12.0051 15.7032 12.0002 15.3148 12.0002C14.9237 12.0002 14.2903 12.1393 13.7533 12.6957C13.2163 13.2546 11.707 14.6009 11.707 17.3432C11.707 20.0856 13.8028 22.736 14.0948 23.1086C14.3867 23.4812 18.2187 29.1074 24.0839 31.5219C25.4811 32.0957 26.5708 32.4385 27.418 32.6968C28.8178 33.1216 30.0925 33.0595 31.1013 32.9179C32.2248 32.7589 34.5605 31.5715 35.048 30.2699C35.5354 28.9683 35.5354 27.853 35.3895 27.6195C35.2435 27.386 34.8499 27.2444 34.2686 26.9662Z" fill="url(#paint3_linear_33_14)"/>
<path d="M3.48148 33.5455H11.3148V40.9091H3.48148V33.5455Z" fill="url(#paint4_linear_33_14)"/>
<path d="M27.6211 14.1523C27.8555 14.1523 28.1224 14.1979 28.4219 14.2891C28.7214 14.3802 29.0013 14.5234 29.2617 14.7188C29.5352 14.9141 29.7565 15.1745 29.9258 15.5C30.1081 15.8255 30.1992 16.2227 30.1992 16.6914C30.1992 17.1081 30.1146 17.4922 29.9453 17.8438C29.776 18.1953 29.5417 18.4883 29.2422 18.7227L20.1211 27.9414H28.0312C28.3958 27.9414 28.7344 28.0065 29.0469 28.1367C29.3724 28.2539 29.6523 28.4297 29.8867 28.6641C30.1211 28.8854 30.3034 29.1458 30.4336 29.4453C30.5768 29.7448 30.6484 30.0703 30.6484 30.4219C30.6484 30.7734 30.5768 31.1055 30.4336 31.418C30.3034 31.7305 30.1211 32.0039 29.8867 32.2383C29.6523 32.4727 29.3724 32.6615 29.0469 32.8047C28.7344 32.9349 28.3958 33 28.0312 33H14.457C14.1055 33 13.7734 32.9349 13.4609 32.8047C13.1484 32.6615 12.875 32.4727 12.6406 32.2383C12.4062 32.0039 12.2174 31.7305 12.0742 31.418C11.944 31.1055 11.8789 30.7734 11.8789 30.4219C11.8659 30.0964 11.9245 29.7839 12.0547 29.4844C12.1849 29.1849 12.3802 28.9049 12.6406 28.6445L21.8789 19.2891H14.5938C14.2422 19.2891 13.9102 19.224 13.5977 19.0938C13.2852 18.9505 13.0117 18.7617 12.7773 18.5273C12.556 18.293 12.3737 18.0195 12.2305 17.707C12.1003 17.3945 12.0352 17.056 12.0352 16.6914C12.0352 16.3398 12.1003 16.0143 12.2305 15.7148C12.3737 15.4023 12.556 15.1289 12.7773 14.8945C13.0117 14.6602 13.2852 14.4779 13.5977 14.3477C13.9102 14.2174 14.2422 14.1523 14.5938 14.1523H27.6211Z" fill="url(#paint5_linear_33_14)"/>
<path d="M38.9161 31.5826C38.921 31.895 38.8682 32.1824 38.7577 32.4445C38.637 32.7173 38.4792 32.9542 38.2845 33.1552C38.0794 33.3668 37.8424 33.532 37.5734 33.6508C37.3044 33.7696 37.0189 33.8314 36.7168 33.8361C36.4148 33.8409 36.1275 33.7881 35.8549 33.6778C35.5823 33.5674 35.3454 33.4097 35.1442 33.2045C34.9328 33.0099 34.7677 32.7781 34.6489 32.5091C34.5198 32.2506 34.4528 31.9652 34.4479 31.6527C34.4431 31.3507 34.5011 31.0633 34.6219 30.7905C34.7322 30.5179 34.8899 30.2758 35.0949 30.0642C35.2897 29.8632 35.5216 29.7033 35.7906 29.5845C36.0596 29.4657 36.3451 29.4039 36.6472 29.3992C36.9492 29.3944 37.2365 29.4472 37.5091 29.5575C37.7817 29.6678 38.0237 29.8203 38.2351 30.0149C38.4363 30.2201 38.6015 30.4572 38.7307 30.726C38.8496 30.995 38.9113 31.2805 38.9161 31.5826ZM38.704 26.0383C38.7084 26.3196 38.6553 26.586 38.5447 26.8378C38.434 27.0896 38.2864 27.3107 38.1019 27.5011C37.907 27.6917 37.6801 27.8411 37.4214 27.9493C37.1628 28.068 36.8877 28.1296 36.596 28.1342C36.3148 28.1386 36.0483 28.0855 35.7966 27.9749C35.545 27.8746 35.3292 27.7322 35.1491 27.5475C34.9587 27.3629 34.8095 27.1465 34.7014 26.8982C34.5933 26.6498 34.5371 26.3851 34.5327 26.1038L34.358 14.9802C34.3536 14.699 34.4067 14.4325 34.5173 14.1807C34.6176 13.9291 34.7599 13.7081 34.9445 13.5177C35.129 13.3273 35.3454 13.178 35.5938 13.0699C35.8419 12.9515 36.1066 12.89 36.3878 12.8856C36.6691 12.8812 36.9408 12.9342 37.2029 13.0447C37.4545 13.1449 37.6808 13.2872 37.8816 13.4716C38.072 13.6561 38.2265 13.8725 38.345 14.1206C38.4635 14.3688 38.5249 14.6335 38.5293 14.9147L38.704 26.0383Z" fill="white"/>
<defs>
<linearGradient id="paint0_linear_33_14" x1="98.2333" y1="16.2" x2="76.0972" y2="17.0625" gradientUnits="userSpaceOnUse">
<stop stop-color="#45276B"/>
<stop offset="1" stop-color="#8E61C8" stop-opacity="0.99"/>
</linearGradient>
<linearGradient id="paint1_linear_33_14" x1="75.1333" y1="9.2" x2="50.0996" y2="10.0337" gradientUnits="userSpaceOnUse">
<stop stop-color="#45276B"/>
<stop offset="1" stop-color="#956CC9" stop-opacity="0.99"/>
</linearGradient>
<linearGradient id="paint2_linear_33_14" x1="8.70371" y1="7.36363" x2="41.0443" y2="57.907" gradientUnits="userSpaceOnUse">
<stop stop-color="#312343"/>
<stop offset="1" stop-color="#9B73CD"/>
</linearGradient>
<linearGradient id="paint3_linear_33_14" x1="8.70371" y1="7.36363" x2="41.0443" y2="57.907" gradientUnits="userSpaceOnUse">
<stop stop-color="#312343"/>
<stop offset="1" stop-color="#9B73CD"/>
</linearGradient>
<linearGradient id="paint4_linear_33_14" x1="8.70371" y1="7.36363" x2="41.0443" y2="57.907" gradientUnits="userSpaceOnUse">
<stop stop-color="#312343"/>
<stop offset="1" stop-color="#9B73CD"/>
</linearGradient>
<linearGradient id="paint5_linear_33_14" x1="11" y1="9" x2="23" y2="38" gradientUnits="userSpaceOnUse">
<stop stop-color="white"/>
<stop offset="1" stop-color="white"/>
</linearGradient>
</defs>
</svg>
