<svg width="107" height="39" viewBox="0 0 107 39" fill="none" xmlns="http://www.w3.org/2000/svg">
<path d="M104.444 17.2858C104.797 17.2858 105.125 17.3588 105.428 17.5048C105.744 17.6376 106.015 17.8234 106.243 18.0624C106.482 18.288 106.665 18.5602 106.792 18.8788C106.931 19.1841 107 19.5226 107 19.8943V25.848C107 26.2595 106.918 26.6246 106.754 26.9432C106.602 27.2485 106.407 27.5339 106.167 27.7994C104.677 29.1534 103.169 30.1158 101.641 30.6867C100.114 31.2442 98.5292 31.523 96.8881 31.523C95.7898 31.5097 94.7168 31.3438 93.669 31.0252C92.6338 30.7066 91.6554 30.2619 90.7339 29.691C89.8249 29.1202 88.9918 28.4366 88.2343 27.6401C87.4769 26.8436 86.8204 25.9608 86.265 24.9918C85.7221 24.0095 85.2992 22.9607 84.9962 21.8457C84.6933 20.7173 84.5418 19.5425 84.5418 18.3212C84.5418 17.1132 84.6869 15.945 84.9773 14.8167C85.2677 13.6883 85.6779 12.633 86.2081 11.6507C86.751 10.655 87.3948 9.75236 88.1396 8.9426C88.8971 8.13284 89.7366 7.43592 90.6581 6.85183C91.5923 6.26774 92.5896 5.8164 93.65 5.4978C94.7231 5.16593 95.8403 5 97.0017 5C98.7943 5 100.429 5.33187 101.906 5.99561C103.396 6.64607 104.772 7.6284 106.034 8.9426C106.287 9.2081 106.47 9.50014 106.583 9.81874C106.71 10.1241 106.773 10.4427 106.773 10.7745C106.773 11.1197 106.703 11.4515 106.564 11.7701C106.426 12.0887 106.236 12.3675 105.996 12.6064C105.769 12.8454 105.498 13.0379 105.182 13.1839C104.867 13.3299 104.538 13.4029 104.197 13.4029C103.882 13.4029 103.579 13.3432 103.289 13.2237C102.998 13.1042 102.733 12.9184 102.493 12.6662C101.723 11.8697 100.871 11.2856 99.9368 10.9139C99.0153 10.5422 98.0558 10.3564 97.0585 10.3564C96.0486 10.3564 95.0892 10.5621 94.1802 10.9736C93.2839 11.3719 92.4949 11.9294 91.8132 12.6463C91.1315 13.3498 90.5887 14.1861 90.1847 15.1552C89.7934 16.1242 89.5977 17.1663 89.5977 18.2814C89.5977 19.3566 89.7871 20.3788 90.1658 21.3479C90.5571 22.3036 91.0873 23.1466 91.7564 23.8767C92.4381 24.5935 93.2398 25.1644 94.1613 25.5891C95.0829 26.0139 96.0865 26.2263 97.1722 26.2263C98.0306 26.2263 98.8512 26.1135 99.6338 25.8878C100.417 25.6622 101.18 25.2506 101.925 24.6533V22.5426H99.88C99.5265 22.5426 99.1983 22.4762 98.8953 22.3435C98.5924 22.1974 98.3273 22.005 98.1 21.766C97.8854 21.5271 97.715 21.2483 97.5887 20.9297C97.4625 20.5978 97.3994 20.2527 97.3994 19.8943C97.3994 19.5359 97.4625 19.1974 97.5887 18.8788C97.715 18.5602 97.8854 18.2748 98.1 18.0225C98.3273 17.7703 98.5924 17.5778 98.8953 17.4451C99.1983 17.2991 99.5265 17.2261 99.88 17.2261L104.444 17.2858Z" fill="url(#paint0_linear_29_43)"/>
<path d="M56.6867 18.2748C56.6867 16.5402 56.9981 14.9118 57.6209 13.3896C58.2605 11.8498 59.119 10.5134 60.1962 9.38067C61.2903 8.23019 62.5611 7.32751 64.0087 6.67262C65.4563 6.00003 67.0048 5.66374 68.6544 5.66374C70.3207 5.66374 71.8945 6.00003 73.3758 6.67262C74.857 7.32751 76.1615 8.23019 77.2892 9.38067C78.417 10.5134 79.3091 11.8498 79.9655 13.3896C80.622 14.9118 80.9502 16.5402 80.9502 18.2748V27.8326C80.9502 28.3282 80.8661 28.7884 80.6977 29.2132C80.5294 29.6202 80.2938 29.9831 79.9908 30.3017C79.7046 30.6026 79.3596 30.8415 78.9556 31.0185C78.5516 31.1955 78.1224 31.284 77.668 31.284C77.1967 31.284 76.7506 31.1955 76.3298 31.0185C75.9258 30.8415 75.5639 30.6026 75.2441 30.3017C74.9412 29.9831 74.6971 29.6202 74.5119 29.2132C74.3436 28.7884 74.2595 28.3282 74.2595 27.8326V18.3013C74.2426 17.5402 74.0743 16.8234 73.7545 16.1508C73.4515 15.4782 73.0391 14.8941 72.5173 14.3985C71.9955 13.8852 71.398 13.487 70.7247 13.2038C70.0683 12.9029 69.3781 12.7525 68.6544 12.7525C67.9306 12.7525 67.2489 12.8941 66.6093 13.1773C65.9865 13.4427 65.4394 13.8233 64.9681 14.3189C64.5137 14.7968 64.1434 15.3632 63.8572 16.018C63.5879 16.6729 63.4448 17.3809 63.428 18.142V27.8326C63.428 28.3282 63.3438 28.7884 63.1755 29.2132C63.0072 29.6202 62.7715 29.9831 62.4686 30.3017C62.1656 30.6026 61.8121 30.8415 61.4081 31.0185C61.021 31.1955 60.6002 31.284 60.1457 31.284C59.6913 31.284 59.2536 31.1955 58.8328 31.0185C58.412 30.8415 58.0417 30.6026 57.7219 30.3017C57.4021 29.9831 57.1496 29.6202 56.9645 29.2132C56.7793 28.7884 56.6867 28.3282 56.6867 27.8326V18.2748Z" fill="url(#paint1_linear_29_43)"/>
<path d="M49.4157 31.1836C49.4142 31.5818 49.3434 31.9466 49.2033 32.2779C49.0506 32.6224 48.8538 32.9203 48.613 33.1715C48.3595 33.436 48.0684 33.6406 47.7397 33.7852C47.4109 33.9299 47.0635 34.0015 46.6974 34C46.3313 33.9985 45.9844 33.924 45.6567 33.7767C45.329 33.6293 45.0457 33.4224 44.8069 33.1559C44.5553 32.9026 44.3608 32.6032 44.2232 32.2574C44.0729 31.925 43.9985 31.5596 44 31.1614C44.0015 30.7764 44.0786 30.4116 44.2313 30.0671C44.3715 29.7226 44.5683 29.418 44.8217 29.1536C45.0625 28.9024 45.3473 28.7044 45.6761 28.5597C46.0048 28.4151 46.3523 28.3435 46.7184 28.345C47.0845 28.3465 47.4314 28.4209 47.759 28.5683C48.0867 28.7157 48.3763 28.916 48.6279 29.1692C48.8667 29.4357 49.0613 29.7418 49.2115 30.0876C49.3491 30.4333 49.4171 30.7986 49.4157 31.1836ZM49.2905 24.1142C49.2892 24.4726 49.2185 24.8109 49.0784 25.1289C48.9384 25.4469 48.7543 25.7249 48.5262 25.9629C48.2854 26.2009 48.007 26.3856 47.6909 26.517C47.3748 26.6618 47.04 26.7334 46.6865 26.7319C46.3456 26.7305 46.024 26.6562 45.7216 26.5089C45.4191 26.375 45.161 26.188 44.9473 25.9482C44.7209 25.7083 44.5452 25.4289 44.4202 25.1097C44.2951 24.7906 44.2333 24.4519 44.2346 24.0935L44.2873 9.91612C44.2886 9.5577 44.3593 9.21949 44.4993 8.90146C44.6268 8.58339 44.8045 8.30535 45.0326 8.06734C45.2608 7.82933 45.5266 7.64457 45.83 7.51307C46.1335 7.3683 46.4557 7.29661 46.7966 7.29801C47.1374 7.29941 47.4654 7.37377 47.7804 7.52109C48.0829 7.65508 48.3536 7.84204 48.5926 8.08197C48.819 8.32184 49.001 8.60136 49.1386 8.92053C49.2763 9.23969 49.3445 9.57848 49.3432 9.93689L49.2905 24.1142Z" fill="url(#paint2_linear_29_43)"/>
<path d="M37.5556 19.1455C37.5556 28.5443 29.1485 36.1636 18.7778 36.1636C8.4071 36.1636 0 28.5443 0 19.1455C0 9.74657 8.4071 2.12727 18.7778 2.12727C29.1485 2.12727 37.5556 9.74657 37.5556 19.1455Z" fill="url(#paint3_linear_29_43)"/>
<path fill-rule="evenodd" clip-rule="evenodd" d="M33.3176 5.6683C29.6512 2.01501 24.7757 0.00215279 19.5822 0C8.87937 0 0.166556 8.6693 0.16223 19.3256C0.16223 22.7313 1.05557 26.0553 2.75358 28.9874L0 39L10.294 36.3112C13.1319 37.8504 16.3246 38.662 19.5735 38.6642H19.5822C30.2829 38.6642 38.9957 29.9949 39 19.3385C39 14.1761 36.984 9.32159 33.3176 5.6683ZM19.5822 35.4027H19.5757C16.6794 35.4005 13.8393 34.6277 11.3604 33.1616L10.772 32.8129L4.66356 34.4081L6.29235 28.4815L5.90948 27.8744C4.29368 25.3168 3.44143 22.3611 3.44143 19.3256C3.44576 10.469 10.6855 3.26363 19.5887 3.26363C23.8997 3.26579 27.9511 4.93851 30.9988 7.97395C34.0444 11.0115 35.723 15.0459 35.7208 19.3385C35.7165 28.1951 28.4767 35.4027 19.5822 35.4027ZM28.4356 23.3707C27.9489 23.1275 25.5652 21.9606 25.1196 21.7992C24.6762 21.6377 24.3539 21.5581 24.0294 22.0403C23.705 22.5225 22.7749 23.6097 22.4915 23.9326C22.2082 24.2555 21.9248 24.2943 21.4403 24.0532C20.9557 23.812 19.3918 23.3018 17.5381 21.6571C16.0953 20.3762 15.122 18.796 14.8386 18.3117C14.5552 17.8273 14.8083 17.5668 15.0527 17.3257C15.2712 17.1104 15.5373 16.7616 15.7795 16.4796C16.0218 16.1976 16.1018 15.9974 16.2641 15.6745C16.4263 15.3516 16.3463 15.0696 16.223 14.8284C16.1018 14.5852 15.1306 12.2085 14.7261 11.2419C14.3346 10.3054 13.9344 10.4303 13.6359 10.4174C13.3547 10.4044 13.0303 10.4001 12.708 10.4001C12.3835 10.4001 11.8579 10.5207 11.4123 11.0029C10.9667 11.4873 9.71431 12.6541 9.71431 15.0308C9.71431 17.4075 11.4534 19.7045 11.6957 20.0274C11.9379 20.3504 15.1176 25.2264 19.9845 27.3189C21.1439 27.8162 22.0481 28.1133 22.7511 28.3372C23.9126 28.7053 24.9704 28.6515 25.8075 28.5288C26.7398 28.391 28.6779 27.362 29.0824 26.2339C29.4869 25.1059 29.4869 24.1393 29.3657 23.9369C29.2446 23.7345 28.918 23.6118 28.4356 23.3707Z" fill="url(#paint4_linear_29_43)"/>
<path d="M2.88889 29.0727H9.38889V35.4545H2.88889V29.0727Z" fill="url(#paint5_linear_29_43)"/>
<path d="M25.6211 11.1523C25.8555 11.1523 26.1224 11.1979 26.4219 11.2891C26.7214 11.3802 27.0013 11.5234 27.2617 11.7188C27.5352 11.9141 27.7565 12.1745 27.9258 12.5C28.1081 12.8255 28.1992 13.2227 28.1992 13.6914C28.1992 14.1081 28.1146 14.4922 27.9453 14.8438C27.776 15.1953 27.5417 15.4883 27.2422 15.7227L18.1211 24.9414H26.0312C26.3958 24.9414 26.7344 25.0065 27.0469 25.1367C27.3724 25.2539 27.6523 25.4297 27.8867 25.6641C28.1211 25.8854 28.3034 26.1458 28.4336 26.4453C28.5768 26.7448 28.6484 27.0703 28.6484 27.4219C28.6484 27.7734 28.5768 28.1055 28.4336 28.418C28.3034 28.7305 28.1211 29.0039 27.8867 29.2383C27.6523 29.4727 27.3724 29.6615 27.0469 29.8047C26.7344 29.9349 26.3958 30 26.0312 30H12.457C12.1055 30 11.7734 29.9349 11.4609 29.8047C11.1484 29.6615 10.875 29.4727 10.6406 29.2383C10.4062 29.0039 10.2174 28.7305 10.0742 28.418C9.94401 28.1055 9.87891 27.7734 9.87891 27.4219C9.86589 27.0964 9.92448 26.7839 10.0547 26.4844C10.1849 26.1849 10.3802 25.9049 10.6406 25.6445L19.8789 16.2891H12.5938C12.2422 16.2891 11.9102 16.224 11.5977 16.0938C11.2852 15.9505 11.0117 15.7617 10.7773 15.5273C10.556 15.293 10.3737 15.0195 10.2305 14.707C10.1003 14.3945 10.0352 14.056 10.0352 13.6914C10.0352 13.3398 10.1003 13.0143 10.2305 12.7148C10.3737 12.4023 10.556 12.1289 10.7773 11.8945C11.0117 11.6602 11.2852 11.4779 11.5977 11.3477C11.9102 11.2174 12.2422 11.1523 12.5938 11.1523H25.6211Z" fill="white"/>
<defs>
<linearGradient id="paint0_linear_29_43" x1="41.4873" y1="4.9469" x2="56.1782" y2="48.192" gradientUnits="userSpaceOnUse">
<stop stop-color="#312343"/>
<stop offset="1" stop-color="#966CCE" stop-opacity="0.99"/>
</linearGradient>
<linearGradient id="paint1_linear_29_43" x1="41.4873" y1="4.9469" x2="56.1782" y2="48.192" gradientUnits="userSpaceOnUse">
<stop stop-color="#312343"/>
<stop offset="1" stop-color="#966CCE" stop-opacity="0.99"/>
</linearGradient>
<linearGradient id="paint2_linear_29_43" x1="41.4873" y1="4.9469" x2="56.1782" y2="48.192" gradientUnits="userSpaceOnUse">
<stop stop-color="#312343"/>
<stop offset="1" stop-color="#966CCE" stop-opacity="0.99"/>
</linearGradient>
<linearGradient id="paint3_linear_29_43" x1="7.22222" y1="6.38182" x2="35.7437" y2="49.0596" gradientUnits="userSpaceOnUse">
<stop stop-color="#312343"/>
<stop offset="1" stop-color="#9B73CD"/>
</linearGradient>
<linearGradient id="paint4_linear_29_43" x1="7.22222" y1="6.38182" x2="35.7437" y2="49.0596" gradientUnits="userSpaceOnUse">
<stop stop-color="#312343"/>
<stop offset="1" stop-color="#9B73CD"/>
</linearGradient>
<linearGradient id="paint5_linear_29_43" x1="7.22222" y1="6.38182" x2="35.7437" y2="49.0596" gradientUnits="userSpaceOnUse">
<stop stop-color="#312343"/>
<stop offset="1" stop-color="#9B73CD"/>
</linearGradient>
</defs>
</svg>
