<svg width="139" height="55" viewBox="0 0 139 55" fill="none" xmlns="http://www.w3.org/2000/svg">
<path d="M135.812 24.4609C136.249 24.4609 136.656 24.5469 137.031 24.7188C137.421 24.875 137.757 25.0938 138.038 25.375C138.335 25.6406 138.562 25.9609 138.718 26.3359C138.89 26.6953 138.976 27.0938 138.976 27.5312V34.5391C138.976 35.0234 138.874 35.4531 138.671 35.8281C138.484 36.1875 138.242 36.5234 137.945 36.8359C136.101 38.4297 134.234 39.5625 132.343 40.2344C130.453 40.8906 128.492 41.2188 126.46 41.2188C125.101 41.2031 123.773 41.0078 122.476 40.6328C121.195 40.2578 119.984 39.7344 118.843 39.0625C117.718 38.3906 116.687 37.5859 115.749 36.6484C114.812 35.7109 113.999 34.6719 113.312 33.5312C112.64 32.375 112.117 31.1406 111.742 29.8281C111.367 28.5 111.179 27.1172 111.179 25.6797C111.179 24.2578 111.359 22.8828 111.718 21.5547C112.078 20.2266 112.585 18.9844 113.242 17.8281C113.913 16.6562 114.71 15.5938 115.632 14.6406C116.57 13.6875 117.609 12.8672 118.749 12.1797C119.906 11.4922 121.14 10.9609 122.453 10.5859C123.781 10.1953 125.163 10 126.601 10C128.82 10 130.843 10.3906 132.671 11.1719C134.515 11.9375 136.218 13.0938 137.781 14.6406C138.093 14.9531 138.32 15.2969 138.46 15.6719C138.617 16.0312 138.695 16.4062 138.695 16.7969C138.695 17.2031 138.609 17.5938 138.437 17.9688C138.265 18.3438 138.031 18.6719 137.734 18.9531C137.453 19.2344 137.117 19.4609 136.726 19.6328C136.335 19.8047 135.929 19.8906 135.507 19.8906C135.117 19.8906 134.742 19.8203 134.382 19.6797C134.023 19.5391 133.695 19.3203 133.398 19.0234C132.445 18.0859 131.39 17.3984 130.234 16.9609C129.093 16.5234 127.906 16.3047 126.671 16.3047C125.421 16.3047 124.234 16.5469 123.109 17.0312C121.999 17.5 121.023 18.1562 120.179 19C119.335 19.8281 118.663 20.8125 118.163 21.9531C117.679 23.0938 117.437 24.3203 117.437 25.6328C117.437 26.8984 117.671 28.1016 118.14 29.2422C118.624 30.3672 119.281 31.3594 120.109 32.2188C120.953 33.0625 121.945 33.7344 123.085 34.2344C124.226 34.7344 125.468 34.9844 126.812 34.9844C127.874 34.9844 128.89 34.8516 129.859 34.5859C130.828 34.3203 131.773 33.8359 132.695 33.1328V30.6484H130.163C129.726 30.6484 129.32 30.5703 128.945 30.4141C128.57 30.2422 128.242 30.0156 127.96 29.7344C127.695 29.4531 127.484 29.125 127.328 28.75C127.171 28.3594 127.093 27.9531 127.093 27.5312C127.093 27.1094 127.171 26.7109 127.328 26.3359C127.484 25.9609 127.695 25.625 127.96 25.3281C128.242 25.0312 128.57 24.8047 128.945 24.6484C129.32 24.4766 129.726 24.3906 130.163 24.3906L135.812 24.4609Z" fill="url(#paint0_linear_29_32)"/>
<path d="M76.7026 25.625C76.7026 23.5833 77.088 21.6667 77.8588 19.875C78.6505 18.0625 79.713 16.4896 81.0463 15.1562C82.4005 13.8021 83.9734 12.7396 85.7651 11.9688C87.5567 11.1771 89.4734 10.7812 91.5151 10.7812C93.5776 10.7812 95.5255 11.1771 97.3588 11.9688C99.1921 12.7396 100.807 13.8021 102.203 15.1562C103.598 16.4896 104.703 18.0625 105.515 19.875C106.328 21.6667 106.734 23.5833 106.734 25.625V36.875C106.734 37.4583 106.63 38 106.421 38.5C106.213 38.9792 105.921 39.4062 105.546 39.7812C105.192 40.1354 104.765 40.4167 104.265 40.625C103.765 40.8333 103.234 40.9375 102.671 40.9375C102.088 40.9375 101.536 40.8333 101.015 40.625C100.515 40.4167 100.067 40.1354 99.6713 39.7812C99.2963 39.4062 98.9942 38.9792 98.7651 38.5C98.5567 38 98.4526 37.4583 98.4526 36.875V25.6562C98.4317 24.7604 98.2234 23.9167 97.8276 23.125C97.4526 22.3333 96.9421 21.6458 96.2963 21.0625C95.6505 20.4583 94.9109 19.9896 94.0776 19.6562C93.2651 19.3021 92.4109 19.125 91.5151 19.125C90.6192 19.125 89.7755 19.2917 88.9838 19.625C88.213 19.9375 87.5359 20.3854 86.9526 20.9688C86.3901 21.5312 85.9317 22.1979 85.5776 22.9688C85.2442 23.7396 85.0671 24.5729 85.0463 25.4688V36.875C85.0463 37.4583 84.9421 38 84.7338 38.5C84.5255 38.9792 84.2338 39.4062 83.8588 39.7812C83.4838 40.1354 83.0463 40.4167 82.5463 40.625C82.0671 40.8333 81.5463 40.9375 80.9838 40.9375C80.4213 40.9375 79.8796 40.8333 79.3588 40.625C78.838 40.4167 78.3796 40.1354 77.9838 39.7812C77.588 39.4062 77.2755 38.9792 77.0463 38.5C76.8171 38 76.7026 37.4583 76.7026 36.875V25.625Z" fill="url(#paint1_linear_29_32)"/>
<path d="M67.7031 40.8193C67.7013 41.2881 67.6137 41.7174 67.4403 42.1073C67.2512 42.5129 67.0076 42.8635 66.7096 43.1592C66.3959 43.4705 66.0355 43.7112 65.6286 43.8815C65.2217 44.0518 64.7917 44.1361 64.3386 44.1343C63.8854 44.1325 63.4561 44.0449 63.0505 43.8715C62.6449 43.698 62.2943 43.4544 61.9987 43.1408C61.6873 42.8427 61.4465 42.4902 61.2762 42.0833C61.0903 41.6919 60.9982 41.2619 61 40.7931C61.0018 40.34 61.0972 39.9107 61.2863 39.5052C61.4598 39.0996 61.7034 38.7412 62.0171 38.4299C62.3151 38.1342 62.6676 37.9012 63.0745 37.7309C63.4814 37.5606 63.9114 37.4763 64.3646 37.4781C64.8177 37.4799 65.247 37.5675 65.6526 37.741C66.0582 37.9144 66.4166 38.1502 66.728 38.4483C67.0236 38.7619 67.2644 39.1223 67.4503 39.5292C67.6206 39.9362 67.7049 40.3662 67.7031 40.8193ZM67.5481 32.4983C67.5465 32.9202 67.459 33.3183 67.2856 33.6926C67.1123 34.0669 66.8844 34.3942 66.6021 34.6743C66.3041 34.9544 65.9595 35.1718 65.5683 35.3265C65.177 35.4969 64.7626 35.5812 64.3251 35.5795C63.9032 35.5779 63.5051 35.4904 63.1308 35.317C62.7564 35.1593 62.437 34.9393 62.1724 34.657C61.8923 34.3747 61.6748 34.0457 61.52 33.6701C61.3653 33.2945 61.2887 32.8957 61.2903 32.4739L61.3555 15.7865C61.3572 15.3646 61.4447 14.9665 61.618 14.5922C61.7757 14.2178 61.9958 13.8905 62.2781 13.6104C62.5605 13.3303 62.8894 13.1128 63.2651 12.958C63.6407 12.7876 64.0395 12.7032 64.4614 12.7049C64.8832 12.7065 65.2891 12.794 65.6791 12.9674C66.0535 13.1251 66.3886 13.3452 66.6843 13.6276C66.9645 13.91 67.1898 14.239 67.3602 14.6146C67.5306 14.9903 67.615 15.3891 67.6133 15.811L67.5481 32.4983Z" fill="url(#paint2_linear_29_32)"/>
<path d="M52 27C52 40.2548 40.3594 51 26 51C11.6406 51 0 40.2548 0 27C0 13.7452 11.6406 3 26 3C40.3594 3 52 13.7452 52 27Z" fill="url(#paint3_linear_29_32)"/>
<path fill-rule="evenodd" clip-rule="evenodd" d="M46.1321 7.99376C41.0556 2.84169 34.3048 0.00303599 27.1138 0C12.2945 0 0.230616 12.2259 0.224626 27.2541C0.224626 32.057 1.46156 36.7446 3.81264 40.8796L0 55L14.2532 51.2081C18.1827 53.3788 22.6033 54.5234 27.1018 54.5264H27.1138C41.9301 54.5264 53.994 42.3005 54 27.2723C54 19.992 51.2086 13.1458 46.1321 7.99376ZM27.1138 49.9269H27.1048C23.0945 49.9238 19.1621 48.8339 15.7298 46.7664L14.9151 46.2746L6.45724 48.5242L8.71248 40.1662L8.18236 39.31C5.94509 35.7032 4.76506 31.5348 4.76506 27.2541C4.77105 14.764 14.7953 4.60256 27.1228 4.60256C33.0918 4.6056 38.7015 6.96456 42.9215 11.2453C47.1384 15.5291 49.4626 21.2185 49.4596 27.2723C49.4536 39.7624 39.4293 49.9269 27.1138 49.9269ZM39.3724 32.9587C38.6985 32.6156 35.398 30.9701 34.781 30.7424C34.1671 30.5147 33.7208 30.4024 33.2715 31.0825C32.8223 31.7625 31.5344 33.2957 31.1421 33.7511C30.7497 34.2065 30.3574 34.2612 29.6865 33.9211C29.0156 33.5811 26.8502 32.8616 24.2835 30.5421C22.2859 28.7357 20.9381 26.5072 20.5458 25.8241C20.1534 25.141 20.5038 24.7737 20.8423 24.4337C21.1448 24.1301 21.5131 23.6382 21.8486 23.2405C22.184 22.8428 22.2948 22.5604 22.5195 22.105C22.7441 21.6496 22.6333 21.2519 22.4626 20.9119C22.2948 20.5688 20.9501 17.2171 20.39 15.8539C19.8479 14.5333 19.2938 14.7094 18.8805 14.6912C18.4912 14.6729 18.0419 14.6669 17.5957 14.6669C17.1464 14.6669 16.4186 14.8369 15.8017 15.5169C15.1847 16.2 13.4506 17.8456 13.4506 21.1973C13.4506 24.549 15.8586 27.7884 16.194 28.2438C16.5294 28.6992 20.9321 35.5757 27.6709 38.5267C29.2762 39.228 30.5281 39.647 31.5015 39.9627C33.1098 40.4819 34.5744 40.406 35.7334 40.2329C37.0243 40.0386 39.7078 38.5874 40.2679 36.9966C40.8279 35.4057 40.828 34.0426 40.6602 33.7572C40.4925 33.4718 40.0403 33.2987 39.3724 32.9587Z" fill="url(#paint4_linear_29_32)"/>
<path d="M4 41H13V50H4V41Z" fill="url(#paint5_linear_29_32)"/>
<path d="M35.9453 15.3828C36.2266 15.3828 36.5469 15.4375 36.9062 15.5469C37.2656 15.6562 37.6016 15.8281 37.9141 16.0625C38.2422 16.2969 38.5078 16.6094 38.7109 17C38.9297 17.3906 39.0391 17.8672 39.0391 18.4297C39.0391 18.9297 38.9375 19.3906 38.7344 19.8125C38.5312 20.2344 38.25 20.5859 37.8906 20.8672L26.9453 31.9297H36.4375C36.875 31.9297 37.2812 32.0078 37.6562 32.1641C38.0469 32.3047 38.3828 32.5156 38.6641 32.7969C38.9453 33.0625 39.1641 33.375 39.3203 33.7344C39.4922 34.0938 39.5781 34.4844 39.5781 34.9062C39.5781 35.3281 39.4922 35.7266 39.3203 36.1016C39.1641 36.4766 38.9453 36.8047 38.6641 37.0859C38.3828 37.3672 38.0469 37.5938 37.6562 37.7656C37.2812 37.9219 36.875 38 36.4375 38H20.1484C19.7266 38 19.3281 37.9219 18.9531 37.7656C18.5781 37.5938 18.25 37.3672 17.9688 37.0859C17.6875 36.8047 17.4609 36.4766 17.2891 36.1016C17.1328 35.7266 17.0547 35.3281 17.0547 34.9062C17.0391 34.5156 17.1094 34.1406 17.2656 33.7812C17.4219 33.4219 17.6562 33.0859 17.9688 32.7734L29.0547 21.5469H20.3125C19.8906 21.5469 19.4922 21.4688 19.1172 21.3125C18.7422 21.1406 18.4141 20.9141 18.1328 20.6328C17.8672 20.3516 17.6484 20.0234 17.4766 19.6484C17.3203 19.2734 17.2422 18.8672 17.2422 18.4297C17.2422 18.0078 17.3203 17.6172 17.4766 17.2578C17.6484 16.8828 17.8672 16.5547 18.1328 16.2734C18.4141 15.9922 18.7422 15.7734 19.1172 15.6172C19.4922 15.4609 19.8906 15.3828 20.3125 15.3828H35.9453Z" fill="white"/>
<defs>
<linearGradient id="paint0_linear_29_32" x1="57.8901" y1="9.9375" x2="74.4986" y2="61.3476" gradientUnits="userSpaceOnUse">
<stop stop-color="#312343"/>
<stop offset="1" stop-color="#966CCE" stop-opacity="0.99"/>
</linearGradient>
<linearGradient id="paint1_linear_29_32" x1="57.8901" y1="9.9375" x2="74.4986" y2="61.3476" gradientUnits="userSpaceOnUse">
<stop stop-color="#312343"/>
<stop offset="1" stop-color="#966CCE" stop-opacity="0.99"/>
</linearGradient>
<linearGradient id="paint2_linear_29_32" x1="57.8901" y1="9.9375" x2="74.4986" y2="61.3476" gradientUnits="userSpaceOnUse">
<stop stop-color="#312343"/>
<stop offset="1" stop-color="#966CCE" stop-opacity="0.99"/>
</linearGradient>
<linearGradient id="paint3_linear_29_32" x1="10" y1="9" x2="50.5" y2="68.5" gradientUnits="userSpaceOnUse">
<stop stop-color="#312343"/>
<stop offset="1" stop-color="#9B73CD"/>
</linearGradient>
<linearGradient id="paint4_linear_29_32" x1="10" y1="9" x2="50.5" y2="68.5" gradientUnits="userSpaceOnUse">
<stop stop-color="#312343"/>
<stop offset="1" stop-color="#9B73CD"/>
</linearGradient>
<linearGradient id="paint5_linear_29_32" x1="10" y1="9" x2="50.5" y2="68.5" gradientUnits="userSpaceOnUse">
<stop stop-color="#312343"/>
<stop offset="1" stop-color="#9B73CD"/>
</linearGradient>
</defs>
</svg>
