<svg width="229" height="110" viewBox="0 0 229 110" fill="none" xmlns="http://www.w3.org/2000/svg">
<path d="M53.1875 24.6875C53.9375 24.6875 54.7917 24.8333 55.75 25.125C56.7083 25.4167 57.6042 25.875 58.4375 26.5C59.3125 27.125 60.0208 27.9583 60.5625 29C61.1458 30.0417 61.4375 31.3125 61.4375 32.8125C61.4375 34.1458 61.1667 35.375 60.625 36.5C60.0833 37.625 59.3333 38.5625 58.375 39.3125L29.1875 68.8125H54.5C55.6667 68.8125 56.75 69.0208 57.75 69.4375C58.7917 69.8125 59.6875 70.375 60.4375 71.125C61.1875 71.8333 61.7708 72.6667 62.1875 73.625C62.6458 74.5833 62.875 75.625 62.875 76.75C62.875 77.875 62.6458 78.9375 62.1875 79.9375C61.7708 80.9375 61.1875 81.8125 60.4375 82.5625C59.6875 83.3125 58.7917 83.9167 57.75 84.375C56.75 84.7917 55.6667 85 54.5 85H11.0625C9.9375 85 8.875 84.7917 7.875 84.375C6.875 83.9167 6 83.3125 5.25 82.5625C4.5 81.8125 3.89583 80.9375 3.4375 79.9375C3.02083 78.9375 2.8125 77.875 2.8125 76.75C2.77083 75.7083 2.95833 74.7083 3.375 73.75C3.79167 72.7917 4.41667 71.8958 5.25 71.0625L34.8125 41.125H11.5C10.375 41.125 9.3125 40.9167 8.3125 40.5C7.3125 40.0417 6.4375 39.4375 5.6875 38.6875C4.97917 37.9375 4.39583 37.0625 3.9375 36.0625C3.52083 35.0625 3.3125 33.9792 3.3125 32.8125C3.3125 31.6875 3.52083 30.6458 3.9375 29.6875C4.39583 28.6875 4.97917 27.8125 5.6875 27.0625C6.4375 26.3125 7.3125 25.7292 8.3125 25.3125C9.3125 24.8958 10.375 24.6875 11.5 24.6875H53.1875Z" fill="url(#paint0_linear_23_18)"/>
<path d="M218.844 51.0469C219.719 51.0469 220.531 51.2188 221.281 51.5625C222.062 51.875 222.734 52.3125 223.297 52.875C223.891 53.4062 224.344 54.0469 224.656 54.7969C225 55.5156 225.172 56.3125 225.172 57.1875V71.2031C225.172 72.1719 224.969 73.0312 224.562 73.7812C224.188 74.5 223.703 75.1719 223.109 75.7969C219.422 78.9844 215.688 81.25 211.906 82.5938C208.125 83.9062 204.203 84.5625 200.141 84.5625C197.422 84.5312 194.766 84.1406 192.172 83.3906C189.609 82.6406 187.188 81.5938 184.906 80.25C182.656 78.9062 180.594 77.2969 178.719 75.4219C176.844 73.5469 175.219 71.4688 173.844 69.1875C172.5 66.875 171.453 64.4062 170.703 61.7812C169.953 59.125 169.578 56.3594 169.578 53.4844C169.578 50.6406 169.938 47.8906 170.656 45.2344C171.375 42.5781 172.391 40.0938 173.703 37.7812C175.047 35.4375 176.641 33.3125 178.484 31.4062C180.359 29.5 182.438 27.8594 184.719 26.4844C187.031 25.1094 189.5 24.0469 192.125 23.2969C194.781 22.5156 197.547 22.125 200.422 22.125C204.859 22.125 208.906 22.9063 212.562 24.4688C216.25 26 219.656 28.3125 222.781 31.4062C223.406 32.0312 223.859 32.7188 224.141 33.4688C224.453 34.1875 224.609 34.9375 224.609 35.7188C224.609 36.5312 224.438 37.3125 224.094 38.0625C223.75 38.8125 223.281 39.4688 222.688 40.0312C222.125 40.5938 221.453 41.0469 220.672 41.3906C219.891 41.7344 219.078 41.9062 218.234 41.9062C217.453 41.9062 216.703 41.7656 215.984 41.4844C215.266 41.2031 214.609 40.7656 214.016 40.1719C212.109 38.2969 210 36.9219 207.688 36.0469C205.406 35.1719 203.031 34.7344 200.562 34.7344C198.062 34.7344 195.688 35.2188 193.438 36.1875C191.219 37.125 189.266 38.4375 187.578 40.125C185.891 41.7812 184.547 43.75 183.547 46.0312C182.578 48.3125 182.094 50.7656 182.094 53.3906C182.094 55.9219 182.562 58.3281 183.5 60.6094C184.469 62.8594 185.781 64.8438 187.438 66.5625C189.125 68.25 191.109 69.5938 193.391 70.5938C195.672 71.5938 198.156 72.0938 200.844 72.0938C202.969 72.0938 205 71.8281 206.938 71.2969C208.875 70.7656 210.766 69.7969 212.609 68.3906V63.4219H207.547C206.672 63.4219 205.859 63.2656 205.109 62.9531C204.359 62.6094 203.703 62.1562 203.141 61.5938C202.609 61.0312 202.188 60.375 201.875 59.625C201.562 58.8438 201.406 58.0312 201.406 57.1875C201.406 56.3438 201.562 55.5469 201.875 54.7969C202.188 54.0469 202.609 53.375 203.141 52.7812C203.703 52.1875 204.359 51.7344 205.109 51.4219C205.859 51.0781 206.672 50.9062 207.547 50.9062L218.844 51.0469Z" fill="url(#paint1_linear_23_18)"/>
<path d="M100.625 54.375C100.625 50.2917 101.396 46.4583 102.938 42.875C104.521 39.25 106.646 36.1042 109.312 33.4375C112.021 30.7292 115.167 28.6042 118.75 27.0625C122.333 25.4792 126.167 24.6875 130.25 24.6875C134.375 24.6875 138.271 25.4792 141.938 27.0625C145.604 28.6042 148.833 30.7292 151.625 33.4375C154.417 36.1042 156.625 39.25 158.25 42.875C159.875 46.4583 160.688 50.2917 160.688 54.375V76.875C160.688 78.0417 160.479 79.125 160.062 80.125C159.646 81.0833 159.062 81.9375 158.312 82.6875C157.604 83.3958 156.75 83.9583 155.75 84.375C154.75 84.7917 153.688 85 152.562 85C151.396 85 150.292 84.7917 149.25 84.375C148.25 83.9583 147.354 83.3958 146.562 82.6875C145.812 81.9375 145.208 81.0833 144.75 80.125C144.333 79.125 144.125 78.0417 144.125 76.875V54.4375C144.083 52.6458 143.667 50.9583 142.875 49.375C142.125 47.7917 141.104 46.4167 139.812 45.25C138.521 44.0417 137.042 43.1042 135.375 42.4375C133.75 41.7292 132.042 41.375 130.25 41.375C128.458 41.375 126.771 41.7083 125.188 42.375C123.646 43 122.292 43.8958 121.125 45.0625C120 46.1875 119.083 47.5208 118.375 49.0625C117.708 50.6042 117.354 52.2708 117.312 54.0625V76.875C117.312 78.0417 117.104 79.125 116.688 80.125C116.271 81.0833 115.688 81.9375 114.938 82.6875C114.188 83.3958 113.312 83.9583 112.312 84.375C111.354 84.7917 110.312 85 109.188 85C108.062 85 106.979 84.7917 105.938 84.375C104.896 83.9583 103.979 83.3958 103.188 82.6875C102.396 81.9375 101.771 81.0833 101.312 80.125C100.854 79.125 100.625 78.0417 100.625 76.875V54.375Z" fill="url(#paint2_linear_23_18)"/>
<path d="M88.464 81.715C88.4604 82.6525 88.2851 83.5112 87.9383 84.2911C87.5602 85.1021 87.073 85.8034 86.477 86.3948C85.8495 87.0174 85.1289 87.4989 84.3151 87.8395C83.5012 88.1801 82.6412 88.3486 81.7349 88.345C80.8287 88.3415 79.97 88.1663 79.1589 87.8193C78.3477 87.4724 77.6465 86.9853 77.0552 86.358C76.4325 85.7618 75.9509 85.0568 75.6103 84.2429C75.2384 83.4602 75.0542 82.6001 75.0579 81.6626C75.0614 80.7564 75.2523 79.8978 75.6305 79.0867C75.9774 78.2756 76.4646 77.5587 77.092 76.9362C77.6881 76.3448 78.393 75.8788 79.2068 75.5382C80.0207 75.1976 80.8807 75.0291 81.787 75.0326C82.6932 75.0362 83.5519 75.2114 84.3631 75.5583C85.1742 75.9053 85.8911 76.3768 86.5138 76.973C87.1051 77.6003 87.5867 78.3209 87.9585 79.1349C88.2991 79.9487 88.4676 80.8088 88.464 81.715ZM88.1541 65.0731C88.1508 65.9168 87.9758 66.713 87.6291 67.4617C87.2824 68.2103 86.8267 68.8648 86.262 69.4251C85.6661 69.9853 84.9769 70.4201 84.1944 70.7295C83.4118 71.0702 82.583 71.2388 81.708 71.2354C80.8643 71.2321 80.0681 71.0571 79.3195 70.7105C78.5707 70.395 77.9318 69.955 77.4027 69.3905C76.8424 68.8258 76.4075 68.1678 76.0979 67.4166C75.7884 66.6654 75.6352 65.8679 75.6385 65.0242L75.7689 31.6494C75.7722 30.8057 75.9472 30.0095 76.2939 29.2608C76.6093 28.5121 77.0494 27.8575 77.6141 27.2972C78.1788 26.7369 78.8367 26.302 79.5879 25.9924C80.3393 25.6516 81.1368 25.4828 81.9806 25.4861C82.8243 25.4894 83.6361 25.6645 84.416 26.0113C85.1648 26.3267 85.835 26.7668 86.4265 27.3316C86.9868 27.8963 87.4374 28.5544 87.7782 29.3057C88.119 30.057 88.2878 30.8546 88.2845 31.6983L88.1541 65.0731Z" fill="url(#paint3_linear_23_18)"/>
<defs>
<linearGradient id="paint0_linear_23_18" x1="63.8" y1="22" x2="0.245484" y2="24.0026" gradientUnits="userSpaceOnUse">
<stop stop-color="#45276B"/>
<stop offset="1" stop-color="#8D56D3" stop-opacity="0.99"/>
</linearGradient>
<linearGradient id="paint1_linear_23_18" x1="226.933" y1="36.6" x2="167.263" y2="38.9409" gradientUnits="userSpaceOnUse">
<stop stop-color="#45276B"/>
<stop offset="1" stop-color="#8D56D3" stop-opacity="0.99"/>
</linearGradient>
<linearGradient id="paint2_linear_23_18" x1="164.667" y1="22" x2="97.2687" y2="24.2524" gradientUnits="userSpaceOnUse">
<stop stop-color="#45276B"/>
<stop offset="1" stop-color="#8D56D3" stop-opacity="0.99"/>
</linearGradient>
<linearGradient id="paint3_linear_23_18" x1="70.6695" y1="73.3579" x2="92.8356" y2="73.122" gradientUnits="userSpaceOnUse">
<stop stop-color="#45276B"/>
<stop offset="1" stop-color="#8D56D3" stop-opacity="0.99"/>
</linearGradient>
</defs>
</svg>
